<?xml version="1.0" encoding="UTF-8" standalone="no"?>
<svg width="117px" height="41px" viewBox="0 0 117 41" version="1.1" xmlns="http://www.w3.org/2000/svg" xmlns:xlink="http://www.w3.org/1999/xlink">
    <!-- Generator: sketchtool 39.1 (31720) - http://www.bohemiancoding.com/sketch -->
    <title>E03DC8FF-CD16-4198-A4A0-22633B37FE22</title>
    <desc>Created with sketchtool.</desc>
    <defs></defs>
    <g id="Blocks" stroke="none" stroke-width="1" fill="none" fill-rule="evenodd">
        <g id="Clients-1" transform="translate(-672.000000, -479.000000)">
            <g id="Group-3" transform="translate(610.000000, 379.000000)">
                <rect id="Rectangle-6" fill="#D8D8D8" opacity="0" x="0" y="0" width="240" height="240"></rect>
                <path d="M74.8404826,140.8975 C71.3720562,140.761614 68.5343607,139.825643 66.3155181,138.087243 C65.8920612,137.755143 64.8830105,136.759429 64.5444826,136.339471 C63.644711,135.223686 63.0329851,134.137771 62.6249699,132.932957 C61.369447,129.224214 62.0156196,124.357514 64.4732135,119.016386 C66.5774318,114.443714 69.8243303,109.908529 75.4890308,103.627329 C76.3234724,102.703071 78.8083861,100 78.8244216,100 C78.8303607,100 78.6949496,100.231357 78.5244978,100.513086 C77.0516044,102.946143 75.7913303,105.812043 75.1047719,108.293129 C74.0018836,112.274229 74.1349191,115.6907 75.494376,118.339886 C76.4321577,120.164971 78.0398683,121.745814 79.8477262,122.6197 C83.0126653,124.149 87.6463404,124.275514 93.3051018,122.989871 C93.6947059,122.900843 113.0003,117.846714 136.206686,111.758214 C159.413071,105.669129 178.4033,100.691143 178.406269,100.695243 C178.412802,100.700514 124.491244,123.455514 96.4997364,135.260586 C92.0668024,137.1296 90.8813607,137.601686 88.7973354,138.323286 C83.4699749,140.168286 78.6979191,141.048614 74.8404826,140.8975 L74.8404826,140.8975 Z" id="Shape" fill="#AAB2B8"></path>
            </g>
        </g>
    </g>
</svg>