<?xml version="1.0" encoding="UTF-8" standalone="no"?>
<svg width="45px" height="35px" viewBox="0 0 45 35" version="1.1" xmlns="http://www.w3.org/2000/svg" xmlns:xlink="http://www.w3.org/1999/xlink">
    <!-- Generator: sketchtool 39.1 (31720) - http://www.bohemiancoding.com/sketch -->
    <title>44C578C2-E016-4C5B-B96F-3916CC4E4B8A</title>
    <desc>Created with sketchtool.</desc>
    <defs></defs>
    <g id="Blocks" stroke="none" stroke-width="1" fill="none" fill-rule="evenodd">
        <g id="Clients-1" transform="translate(-188.000000, -742.000000)">
            <g id="Group-14" transform="translate(90.000000, 639.000000)">
                <rect id="Rectangle-6" fill="#D8D8D8" opacity="0" x="0" y="0" width="240" height="240"></rect>
                <g id="Group-9" transform="translate(98.000000, 103.000000)" fill="#AAB2B8">
                    <path d="M16.0013329,0 C17.9385329,0.360566038 19.8426636,0.875660377 21.7375349,1.41254717 C22.8215467,1.72688679 23.9025824,2.05212264 24.9766735,2.39849057 C26.6638695,2.93504717 28.3437903,3.54259434 29.871923,4.44863208 C30.5564576,4.86367925 31.2138755,5.33254717 31.775723,5.90443396 C32.3845289,6.4984434 32.8828834,7.20306604 33.2486299,7.96976415 C33.9149764,9.35919811 34.1431547,10.9114151 34.210616,12.4375472 C34.2423626,13.4333962 34.2403784,14.4378302 34.0541982,15.4208019 C33.8994339,16.275 33.6242972,17.1173113 33.166618,17.8592453 C32.7625111,18.5146698 32.2006636,19.0812736 31.5187745,19.4464623 C30.8646636,19.7984434 30.1156438,19.9661792 29.3738992,19.9513208 C28.2488814,19.9632075 27.1572636,19.6049528 26.1476576,19.1357547 C26.1294695,15.7833491 26.1450121,12.430283 26.139721,9.07820755 C26.1324458,8.47165094 26.1737824,7.85882075 26.0514259,7.26051887 C25.9654458,6.79693396 25.7759586,6.32971698 25.4115349,6.01504717 C25.1697982,5.79745283 24.8566319,5.67462264 24.5418121,5.60825472 C24.2233547,5.54783019 23.8837329,5.68287736 23.6866398,5.93811321 C23.358923,6.34688679 23.2729428,6.88971698 23.2580616,7.39853774 C23.255416,16.3733962 23.2613685,25.3485849 23.255416,34.322783 C20.8373883,33.5577358 18.4190299,32.7920283 16.0016636,32.0246698 C15.999018,21.3496698 16.0000101,10.675 16.0013329,0 L16.0013329,0 Z" id="Shape"></path>
                    <path d="M5.7893458,19.3500943 C8.94184283,18.2357075 12.0910329,17.1107547 15.2448527,16 C15.2498131,17.2358962 15.2448527,18.4721226 15.2468369,19.7090094 C15.2448527,19.8767453 15.2557656,20.0451415 15.2346012,20.2118868 C12.7418369,21.0941509 10.2540329,21.991934 7.76358342,22.8798113 C7.41833986,23.0099057 7.06416758,23.1575 6.79795966,23.4206604 C6.67394976,23.5441509 6.57308837,23.7264151 6.64088045,23.9033962 C6.72619926,24.1117453 6.9391656,24.225 7.13559728,24.3108491 C7.68190223,24.5327358 8.27913391,24.5641038 8.86115372,24.5908491 C9.50997352,24.5806132 10.1614389,24.5320755 10.7970309,24.3920755 C11.2266012,24.3078774 11.6399676,24.1632547 12.0493656,24.009717 C13.1135359,23.6250472 14.1777062,23.238066 15.24353,22.8573585 C15.2514666,23.9027358 15.2448527,24.9487736 15.2468369,25.9951415 C15.24353,26.2041509 15.256427,26.4144811 15.2355933,26.6228302 C13.9267102,26.8575943 12.6022844,27.0170755 11.2719062,27.0378774 C8.59296164,27.0983019 5.90773391,26.6842453 3.36305075,25.8482075 C2.52838144,25.6068396 1.69900322,25.285566 1.00223292,24.7562736 C0.618628964,24.4597642 0.275369558,24.0869811 0.100763617,23.6283491 C-0.0454027191,23.2400472 -0.0348205409,22.7913208 0.14739134,22.4165566 C0.32298936,22.042783 0.629872528,21.7472642 0.967840845,21.517783 C1.74992995,20.9785849 2.61237748,20.5675 3.48639926,20.2006604 C4.23938738,19.879717 5.02048441,19.6300943 5.7893458,19.3500943 L5.7893458,19.3500943 Z" id="Shape"></path>
                    <path d="M30.8681485,21.127783 C31.5831069,21.0452358 32.302695,21.0257547 33.0212911,21 C35.3860772,21.0089151 37.7627683,21.302783 40.0247089,22.0110377 C40.468499,22.1457547 40.8984,22.3200943 41.3405366,22.4607547 C42.1285782,22.7483491 42.9176119,23.0970283 43.5485743,23.6626415 C43.9278792,24.0080189 44.254604,24.4732547 44.2592337,25.0045283 C44.2817208,25.4367453 44.0856198,25.8514623 43.8048614,26.1704245 C43.2704614,26.7687264 42.564101,27.1798113 41.8547644,27.5383962 C41.0997921,27.9227358 40.2882713,28.1707075 39.4965921,28.4632547 C34.664505,30.1957547 29.8320871,31.9275943 25.0006614,33.6620755 C25,32.3106132 25.0019842,30.9594811 25,29.6086792 C25.0072752,29.5548585 24.9775129,29.4607547 25.053903,29.4465566 C28.7305485,28.1403302 32.406202,26.8304717 36.0821861,25.5209434 C36.5792178,25.3353774 37.1146099,25.2009906 37.5365743,24.8641981 C37.709196,24.7288208 37.8781802,24.5135377 37.7935228,24.2814151 C37.7052277,24.0783491 37.4942455,23.9657547 37.3001287,23.8818868 C36.7498554,23.6642925 36.1506396,23.6220283 35.5653129,23.6058491 C34.6489624,23.6121226 33.7243446,23.7250472 32.8529683,24.0182547 C30.2342099,24.9345283 27.6200812,25.8620283 25.0006614,26.7753302 C25.0009921,25.3241509 25,23.8739623 25.0013228,22.4231132 C26.8965248,21.7591038 28.8753921,21.3566038 30.8681485,21.127783 L30.8681485,21.127783 Z" id="Shape"></path>
                    <path d="M41.4672947,31.0118193 C42.0390631,30.9404986 42.6362947,31.1963948 42.9788928,31.6593193 C43.3529066,32.1367722 43.4213601,32.8255457 43.1571363,33.3710174 C42.8905977,33.9369608 42.2807997,34.3335174 41.6495066,34.3127156 C41.0684789,34.3255929 40.5056393,33.9878099 40.2195898,33.487574 C39.9609878,33.0467722 39.9302334,32.4824797 40.1303027,32.0136118 C40.3551739,31.4724325 40.8849442,31.0771967 41.4672947,31.0118193 L41.4672947,31.0118193 Z M41.3429541,31.3165835 C41.0228433,31.389225 40.732164,31.5830457 40.5410235,31.849508 C40.3111918,32.1628571 40.2242195,32.577574 40.3115225,32.9569608 C40.3849363,33.3092722 40.6081541,33.623942 40.9094155,33.8190835 C41.3733779,34.1235174 42.0238512,34.1066778 42.4676413,33.7721967 C42.9256512,33.4492722 43.1432472,32.8288476 42.9858373,32.2916306 C42.8886136,31.9284231 42.6286888,31.6193665 42.3013027,31.4394137 C42.0102928,31.2848854 41.663065,31.2403099 41.3429541,31.3165835 L41.3429541,31.3165835 Z" id="Shape"></path>
                    <path d="M41.0012193,32.0009906 C41.2991737,31.9993396 41.5981202,32.0006604 41.8964054,32 C42.0650589,32.0023113 42.2509084,32.0416038 42.3702886,32.1707075 C42.4906608,32.3064151 42.5002509,32.5035377 42.4671816,32.6735849 C42.4486628,32.7858491 42.3494549,32.852217 42.2776945,32.9308019 C42.3401955,32.9859434 42.4198925,33.037783 42.4347737,33.1275943 C42.4691658,33.2992925 42.4327896,33.4802358 42.4880153,33.6486321 C42.5227381,33.708066 42.5581222,33.7681604 42.5607678,33.8394811 C42.4370886,33.842783 42.3137401,33.8404717 42.1900608,33.8424528 C42.1067262,33.6466509 42.1688965,33.4264151 42.1169777,33.2246698 C42.0964747,33.1424528 42.0111559,33.0912736 41.9298054,33.0939151 C41.7280826,33.0853302 41.5256985,33.0912736 41.3246371,33.0909434 C41.3216608,33.3412264 41.3319123,33.5925 41.3186846,33.8424528 C41.2135242,33.8408019 41.1080331,33.8408019 41.0028727,33.842783 C40.9975816,33.2279717 41.0012193,32.6148113 41.0012193,32.0009906 L41.0012193,32.0009906 Z M41.3246371,32.2928774 C41.3249678,32.4622642 41.3249678,32.6316509 41.3246371,32.8016981 C41.5048648,32.8026887 41.6854232,32.8040094 41.8663123,32.8023585 C41.9559302,32.8016981 42.0600985,32.7848585 42.1183004,32.7089151 C42.1794787,32.6121698 42.1781559,32.4833962 42.1229302,32.385 C42.0766331,32.3074057 41.9784173,32.2998113 41.8977282,32.2948585 C41.7065876,32.2892453 41.515447,32.2925472 41.3246371,32.2928774 L41.3246371,32.2928774 Z" id="Shape"></path>
                </g>
            </g>
        </g>
    </g>
</svg>