<?xml version="1.0" encoding="UTF-8" standalone="no"?>
<svg width="92px" height="44px" viewBox="0 0 92 44" version="1.1" xmlns="http://www.w3.org/2000/svg" xmlns:xlink="http://www.w3.org/1999/xlink">
    <!-- Generator: sketchtool 39.1 (31720) - http://www.bohemiancoding.com/sketch -->
    <title>204239AD-B479-4DB7-9184-9BE882115F97</title>
    <desc>Created with sketchtool.</desc>
    <defs></defs>
    <g id="Blocks" stroke="none" stroke-width="1" fill="none" fill-rule="evenodd">
        <g id="Clients-2" transform="translate(-164.000000, -475.000000)">
            <g id="Group" transform="translate(90.000000, 377.000000)">
                <rect id="Rectangle-6" fill="#D8D8D8" opacity="0" x="0" y="0" width="240" height="240"></rect>
                <path d="M97.4017289,115.770088 C97.4500915,120.831891 101.970256,122.516331 102.020335,122.537834 C101.982114,122.656626 101.298087,124.938322 99.6388935,127.295155 C98.2045958,129.33275 96.7159808,131.362884 94.3709757,131.40493 C92.0667727,131.446192 91.3258449,130.076811 88.6914862,130.076811 C86.0579279,130.076811 85.2347199,131.362884 83.0535361,131.446199 C80.7900088,131.529457 79.0663582,129.242806 77.6201403,127.212671 C74.6649668,123.059953 72.4066047,115.47809 75.4390157,110.360206 C76.9454511,107.818645 79.63757,106.209219 82.5596222,106.167951 C84.7823479,106.126741 86.8803339,107.621431 88.2391117,107.621431 C89.5970314,107.621431 92.1465313,105.823931 94.8267283,106.087916 C95.9487519,106.133306 99.0982823,106.528453 101.120689,109.405791 C100.957731,109.503984 97.3626482,111.538235 97.4017289,115.770088 M93.0712481,103.340543 C94.2729682,101.926656 95.081796,99.9584 94.8611383,98 C93.128946,98.0676731 91.0343397,99.1219452 89.7918796,100.53505 C88.6783978,101.786422 87.7032323,103.789318 87.9663487,105.708959 C89.8970776,105.854152 91.8694658,104.755322 93.0712481,103.340543" id="path2997" fill="#FFFFFF"></path>
                <path d="M110,101.586761 C110.890875,101.436198 111.873324,101.300757 112.947351,101.180436 C114.021363,101.060176 115.203346,101.000031 116.493304,101 C118.335005,101.000031 119.923551,101.218114 121.258947,101.654252 C122.594314,102.09045 123.691518,102.714858 124.550565,103.527479 C125.287794,104.249249 125.863446,105.106663 126.277522,106.099722 C126.691559,107.092833 126.898588,108.23628 126.898608,109.530069 C126.898588,111.094784 126.614743,112.463892 126.047074,113.637394 C125.479365,114.810932 124.704413,115.796212 123.722216,116.593235 C122.739983,117.390289 121.573457,117.984395 120.222633,118.375556 C118.871781,118.766743 117.398225,118.962329 115.801959,118.962316 C114.359307,118.962329 113.147112,118.85719 112.165372,118.646898 L112.165372,131.645164 L110,131.645164 L110,101.586761 Z M112.165372,116.751633 C112.687153,116.901323 113.270299,117.006233 113.914812,117.066363 C114.559309,117.126525 115.249717,117.156595 115.986036,117.156581 C118.748594,117.156595 120.889606,116.524842 122.409082,115.261316 C123.928524,113.997824 124.688254,112.147555 124.688272,109.710504 C124.688254,108.537006 124.488719,107.513849 124.089668,106.64103 C123.690582,105.76826 123.122892,105.053634 122.386599,104.497149 C121.650273,103.940718 120.775554,103.519472 119.762438,103.23341 C118.749296,102.947404 117.628672,102.804387 116.400562,102.804358 C115.418806,102.804387 114.574767,102.842035 113.868441,102.917303 C113.162101,102.992628 112.594411,103.07527 112.165372,103.16523 L112.165372,116.751633 Z" id="path2995" fill="#FFFFFF"></path>
                <path d="M144.379615,126.014684 C144.379598,126.887943 144.394823,127.760736 144.425284,128.633069 C144.45571,129.505406 144.547751,130.347899 144.701401,131.160548 L142.675142,131.160548 L142.353357,128.091761 L142.260616,128.091761 C141.98425,128.513241 141.631318,128.934486 141.201818,129.355501 C140.77229,129.77652 140.273688,130.160117 139.706012,130.506296 C139.13831,130.852476 138.493571,131.130704 137.771792,131.340984 C137.049992,131.551263 136.259582,131.656401 135.400562,131.656402 C134.326066,131.656401 133.382026,131.483541 132.568437,131.137821 C131.754837,130.792101 131.087146,130.340783 130.565362,129.783864 C130.043573,129.226948 129.652232,128.587618 129.391341,127.865873 C129.130445,127.144134 128.999998,126.421932 129,125.699265 C128.999998,123.141952 130.097437,121.171163 132.29232,119.786893 C134.487193,118.402647 137.794966,117.74082 142.21565,117.801411 L142.21565,117.21465 C142.215635,116.642596 142.16177,115.987885 142.054056,115.250516 C141.946311,114.51318 141.708369,113.813705 141.340228,113.152089 C140.972059,112.49051 140.419592,111.934052 139.682827,111.482714 C138.946036,111.031415 137.94813,110.805756 136.689106,110.805735 C135.738263,110.805756 134.794691,110.948543 133.858385,111.234098 C132.922066,111.519693 132.070298,111.918212 131.303078,112.429657 L130.611734,110.849811 C131.594413,110.188693 132.607542,109.715107 133.651122,109.429051 C134.69469,109.143039 135.784166,109.000022 136.919555,109 C138.454928,109.000022 139.705999,109.255754 140.672771,109.767196 C141.639515,110.278682 142.399244,110.940509 142.951961,111.752679 C143.504646,112.564888 143.880764,113.475101 144.080315,114.48332 C144.279832,115.491573 144.3796,116.492003 144.379616,117.484615 L144.379615,126.014684 Z M142.215649,119.561693 C141.048405,119.531399 139.828013,119.576396 138.554471,119.696676 C137.280906,119.816977 136.106885,120.080285 135.032405,120.486598 C133.95791,120.892934 133.067734,121.48727 132.361874,122.269608 C131.656005,123.051964 131.303073,124.090042 131.303076,125.383847 C131.303073,126.918244 131.748043,128.046541 132.637991,128.768741 C133.527927,129.490944 134.525599,129.852046 135.631009,129.852044 C136.520942,129.852046 137.318846,129.731525 138.024721,129.490483 C138.730574,129.249446 139.3444,128.925993 139.8662,128.520125 C140.387974,128.114262 140.82545,127.655598 141.178631,127.144129 C141.531784,126.632669 141.80064,126.106055 141.985201,125.564283 C142.138818,124.961918 142.215634,124.525291 142.215649,124.254402 L142.215649,119.561693 Z" id="path2998" fill="#FFFFFF"></path>
                <path d="M149.303078,110 L154.919555,124.082257 C155.22681,124.864612 155.518617,125.669456 155.794976,126.496792 C156.071318,127.324138 156.316755,128.083987 156.531287,128.776343 L156.624029,128.776343 C156.838541,128.11429 157.083978,127.369591 157.36034,126.542245 C157.636679,125.714909 157.943475,124.864612 158.280727,123.991351 L163.530457,110 L165.832126,110 L159.432969,125.887993 C158.787514,127.572983 158.180948,129.100029 157.613271,130.469134 C157.04557,131.838242 156.470152,133.071908 155.887016,134.170135 C155.30386,135.268356 154.712985,136.238714 154.11439,137.081212 C153.515779,137.923698 152.847854,138.660822 152.110613,139.292583 C151.25158,140.04462 150.461405,140.593733 149.740088,140.939921 C149.018763,141.286091 148.535384,141.504175 148.289949,141.594173 L147.552233,139.833891 C148.104933,139.593302 148.718993,139.277425 149.394415,138.886258 C150.069831,138.495078 150.729793,137.983614 151.374303,137.351865 C151.926999,136.810094 152.53333,136.095468 153.193299,135.207985 C153.853254,134.320495 154.444129,133.244538 154.965925,131.980113 C155.150462,131.49895 155.242735,131.183073 155.242744,131.03248 C155.242735,130.822202 155.150462,130.506325 154.965925,130.084847 L147,110 L149.303078,110 Z" id="path3000" fill="#FFFFFF"></path>
            </g>
        </g>
    </g>
</svg>