<?xml version="1.0" encoding="UTF-8" standalone="no"?>
<svg width="92px" height="44px" viewBox="0 0 92 44" version="1.1" xmlns="http://www.w3.org/2000/svg" xmlns:xlink="http://www.w3.org/1999/xlink">
    <!-- Generator: sketchtool 39.1 (31720) - http://www.bohemiancoding.com/sketch -->
    <title>51619D4A-72A1-4B8A-87E5-ABB659007B43</title>
    <desc>Created with sketchtool.</desc>
    <defs></defs>
    <g id="Blocks" stroke="none" stroke-width="1" fill="none" fill-rule="evenodd">
        <g id="Clients-1" transform="translate(-164.000000, -477.000000)">
            <g id="Group" transform="translate(90.000000, 379.000000)">
                <rect id="Rectangle-6" fill="#D8D8D8" opacity="0" x="0" y="0" width="240" height="240"></rect>
                <g id="Group-7" transform="translate(74.000000, 98.000000)" fill="#AAB2B8">
                    <path d="M23.4017289,17.7700878 C23.4500915,22.8318912 27.9702557,24.5163312 28.0203353,24.5378343 C27.9821143,24.6566265 27.2980867,26.938322 25.6388935,29.2951546 C24.2045958,31.3327503 22.7159808,33.3628838 20.3709757,33.4049302 C18.0667727,33.4461918 17.3258449,32.0768115 14.6914862,32.0768115 C12.0579279,32.0768115 11.2347199,33.3628838 9.05353613,33.4461987 C6.7900088,33.5294573 5.06635823,31.2428057 3.62014028,29.2126714 C0.664966819,25.0599528 -1.59339525,17.4780897 1.43901568,12.360206 C2.94545115,9.81864493 5.63757001,8.20921907 8.55962219,8.16795061 C10.7823479,8.12674099 12.8803339,9.6214307 14.2391117,9.6214307 C15.5970314,9.6214307 18.1465313,7.8239308 20.8267283,8.08791637 C21.9487519,8.1333058 25.0982823,8.52845339 27.1206888,11.4057906 C26.9577308,11.5039841 23.3626482,13.538235 23.4017289,17.7700878 M19.0712481,5.34054288 C20.2729682,3.92665587 21.081796,1.9584 20.8611383,0 C19.128946,0.0676730769 17.0343397,1.12194519 15.7918796,2.5350499 C14.6783978,3.78642202 13.7032323,5.78931837 13.9663487,7.70895917 C15.8970776,7.85415176 17.8694658,6.75532212 19.0712481,5.34054288" id="path2997"></path>
                    <path d="M36,3.58676074 C36.8908749,3.43619823 37.873324,3.30075674 38.9473506,3.18043584 C40.0213633,3.06017584 41.2033463,3.00003062 42.4933041,3 C44.3350048,3.00003062 45.9235511,3.21811442 47.2589473,3.65425201 C48.5943138,4.09044955 49.6915182,4.71485783 50.5505649,5.52747872 C51.2877936,6.24924937 51.8634456,7.10666302 52.2775224,8.09972215 C52.6915592,9.09283268 52.8985884,10.2362804 52.8986085,11.5300686 C52.8985884,13.0947844 52.6147435,14.4638915 52.0470737,15.6373935 C51.4793647,16.8109323 50.7044126,17.796212 49.7222157,18.5932352 C48.7399831,19.3902892 47.5734565,19.9843953 46.2226326,20.3755561 C44.8717808,20.7667425 43.3982246,20.9623289 41.8019588,20.962316 C40.3593068,20.9623289 39.1471123,20.85719 38.1653718,20.6468977 L38.1653718,33.6451639 L36,33.6451639 L36,3.58676074 Z M38.1653718,18.7516333 C38.6871529,18.9013228 39.2702992,19.0062325 39.9148117,19.0663632 C40.5593094,19.1265247 41.2497167,19.1565951 41.9860363,19.1565806 C44.7485939,19.1565951 46.8896065,18.5248415 48.4090819,17.2613163 C49.9285242,15.9978244 50.6882537,14.1475554 50.688272,11.7105043 C50.6882537,10.5370057 50.4887188,9.51384924 50.0896683,8.64102976 C49.690582,7.76826031 49.1228921,7.0536342 48.3865987,6.49714911 C47.6502731,5.94071826 46.7755535,5.51947222 45.7624384,5.23340971 C44.7492963,4.94740399 43.6286724,4.80438698 42.4005625,4.80435816 C41.4188062,4.80438698 40.5747668,4.84203477 39.8684414,4.91730273 C39.1621011,4.99262774 38.5944113,5.07526996 38.1653718,5.16522976 L38.1653718,18.7516333 Z" id="path2995"></path>
                    <path d="M70.3796147,28.0146835 C70.3795981,28.8879426 70.3948234,29.7607365 70.4252844,30.6330693 C70.4557105,31.5054064 70.5477514,32.3478988 70.7014011,33.1605483 L68.6751421,33.1605483 L68.3533574,30.0917614 L68.2606158,30.0917614 C67.9842505,30.5132407 67.6313182,30.9344865 67.201818,31.3555013 C66.7722899,31.7765196 66.2736883,32.160117 65.7060115,32.5062961 C65.1383103,32.852476 64.493571,33.1307044 63.7717917,33.3409839 C63.0499915,33.5512626 62.2595821,33.6564015 61.4005625,33.6564023 C60.3260664,33.6564015 59.3820256,33.4835411 58.5684367,33.1378214 C57.7548372,32.7921007 57.0871461,32.3407828 56.5653624,31.783864 C56.0435726,31.2269479 55.652232,30.587618 55.3913406,29.8658728 C55.1304448,29.1441335 54.9999983,28.4219316 55,27.6992652 C54.9999983,25.1419518 56.0974374,23.1711631 58.29232,21.7868933 C60.487193,20.4026465 63.794966,19.7408199 68.2156503,19.8014107 L68.2156503,19.2146499 C68.2156355,18.6425958 68.1617698,17.9878852 68.054056,17.2505163 C67.9463108,16.5131799 67.7083685,15.8137048 67.3402275,15.1520894 C66.9720586,14.4905099 66.4195922,13.9340522 65.6828268,13.4827137 C64.946036,13.0314145 63.9481296,12.805756 62.6891058,12.8057354 C61.7382634,12.805756 60.7946912,12.9485432 59.8583848,13.2340981 C58.9220662,13.5196932 58.0702976,13.9182121 57.3030781,14.4296573 L56.6117336,12.8498114 C57.594413,12.1886929 58.6075421,11.7151073 59.6511217,11.4290512 C60.69469,11.1430387 61.7841661,11.0000222 62.9195545,11 C64.454928,11.0000222 65.7059993,11.2557538 66.6727711,11.7671965 C67.639515,12.2786819 68.3992444,12.9405086 68.9519612,13.7526791 C69.5046465,14.5648881 69.8807636,15.4751011 70.080315,16.4833198 C70.2798324,17.4915727 70.3795999,18.4920031 70.3796164,19.4846153 L70.3796147,28.0146835 Z M68.2156486,21.5616932 C67.0484048,21.5313986 65.8280135,21.5763957 64.5544712,21.6966759 C63.2809062,21.8169775 62.1068852,22.0802853 61.0324049,22.4865984 C59.9579097,22.8929339 59.0677337,23.48727 58.3618742,24.2696078 C57.6560052,25.0519636 57.3030728,26.0900424 57.3030763,27.3838468 C57.3030728,28.918244 57.7480435,30.0465411 58.6379909,30.7687405 C59.527927,31.4909442 60.5255986,31.8520456 61.6310086,31.8520439 C62.520942,31.8520456 63.3188459,31.7315251 64.024721,31.4904832 C64.7305744,31.2494456 65.3443999,30.9259925 65.8662001,30.520125 C66.3879742,30.1142617 66.8254505,29.6555976 67.1786315,29.1441293 C67.5317837,28.6326695 67.8006398,28.1060547 67.9852007,27.5642833 C68.1388181,26.9619185 68.2156337,26.525291 68.2156486,26.2544019 L68.2156486,21.5616932 Z" id="path2998"></path>
                    <path d="M75.3030781,12 L80.9195545,26.0822573 C81.2268102,26.8646122 81.5186172,27.6694562 81.7949765,28.4967919 C82.0713183,29.3241379 82.3167549,30.0839875 82.5312873,30.776343 L82.6240289,30.776343 C82.8385412,30.1142897 83.0839779,29.3695909 83.3603397,28.5422449 C83.6366789,27.7149092 83.9434747,26.8646122 84.2807272,25.9913514 L89.530457,12 L91.8321259,12 L85.4329691,27.8879927 C84.7875142,29.5729827 84.1809484,31.1000287 83.6132708,32.4691342 C83.0455705,33.8382422 82.4701524,35.0719082 81.8870156,36.1701348 C81.3038597,37.2683563 80.7129851,38.2387145 80.1143901,39.081212 C79.5157794,39.9236985 78.8478545,40.6608219 78.1106135,41.2925833 C77.2515799,42.0446205 76.4614052,42.5937329 75.7400875,42.9399214 C75.0187628,43.2860911 74.5353839,43.5041752 74.289949,43.5941727 L73.5522334,41.8338911 C74.1049327,41.5933017 74.7189929,41.2774249 75.3944149,40.8862581 C76.0698307,40.4950777 76.7297927,39.9836136 77.3743035,39.3518651 C77.9269993,38.8100937 78.5333304,38.0954679 79.1932994,37.2079852 C79.8532544,36.3204949 80.444129,35.2445385 80.9659249,33.9801126 C81.1504622,33.49895 81.2427353,33.1830731 81.242744,33.0324796 C81.2427353,32.8222018 81.1504622,32.506325 80.9659249,32.0848474 L73,12 L75.3030781,12 Z" id="path3000"></path>
                </g>
            </g>
        </g>
    </g>
</svg>