<?xml version="1.0" encoding="UTF-8" standalone="no"?>
<svg width="124px" height="41px" viewBox="0 0 124 41" version="1.1" xmlns="http://www.w3.org/2000/svg" xmlns:xlink="http://www.w3.org/1999/xlink">
    <!-- Generator: sketchtool 39.1 (31720) - http://www.bohemiancoding.com/sketch -->
    <title>00FE1339-ADF2-4522-9C36-EF79946B601F</title>
    <desc>Created with sketchtool.</desc>
    <defs></defs>
    <g id="Blocks" stroke="none" stroke-width="1" fill="none" fill-rule="evenodd">
        <g id="Clients-1" transform="translate(-408.000000, -479.000000)">
            <g id="Group-2" transform="translate(350.000000, 379.000000)">
                <rect id="Rectangle-6" fill="#D8D8D8" opacity="0" x="0" y="0" width="240" height="240"></rect>
                <g id="Group-8" transform="translate(58.000000, 100.000000)" fill="#AAB2B8">
                    <path d="M53.2722222,21.1042222 C53.2722222,26.9216667 48.7212222,31.2084444 43.1361111,31.2084444 C37.551,31.2084444 33,26.9216667 33,21.1042222 C33,15.2457778 37.551,11 43.1361111,11 C48.7212222,11 53.2722222,15.2457778 53.2722222,21.1042222 L53.2722222,21.1042222 Z M48.8351111,21.1042222 C48.8351111,17.4688889 46.1974444,14.9815556 43.1361111,14.9815556 C40.0747778,14.9815556 37.4371111,17.4688889 37.4371111,21.1042222 C37.4371111,24.7031111 40.0747778,27.2268889 43.1361111,27.2268889 C46.1974444,27.2268889 48.8351111,24.6985556 48.8351111,21.1042222 L48.8351111,21.1042222 Z" id="Shape"></path>
                    <path d="M75.2722222,21.1042222 C75.2722222,26.9216667 70.7212222,31.2084444 65.1361111,31.2084444 C59.551,31.2084444 55,26.9216667 55,21.1042222 C55,15.2503333 59.551,11 65.1361111,11 C70.7212222,11 75.2722222,15.2457778 75.2722222,21.1042222 L75.2722222,21.1042222 Z M70.8351111,21.1042222 C70.8351111,17.4688889 68.1974444,14.9815556 65.1361111,14.9815556 C62.0747778,14.9815556 59.4371111,17.4688889 59.4371111,21.1042222 C59.4371111,24.7031111 62.0747778,27.2268889 65.1361111,27.2268889 C68.1974444,27.2268889 70.8351111,24.6985556 70.8351111,21.1042222 L70.8351111,21.1042222 Z" id="Shape"></path>
                    <path d="M95.3702222,11.6104444 L95.3702222,29.7506667 C95.3702222,37.2126667 90.9695556,40.2603333 85.7671111,40.2603333 C80.8698889,40.2603333 77.9224444,36.9848889 76.8108889,34.3062222 L80.674,32.6981111 C81.3618889,34.3426667 83.0474444,36.2833333 85.7625556,36.2833333 C89.0926667,36.2833333 91.1563333,34.2287778 91.1563333,30.3611111 L91.1563333,28.9078889 L91.0014444,28.9078889 C90.0083333,30.1333333 88.095,31.2038889 85.6805556,31.2038889 C80.6284444,31.2038889 76,26.8032222 76,21.1406667 C76,15.4371111 80.6284444,11 85.6805556,11 C88.0904444,11 90.0037778,12.0705556 91.0014444,13.2595556 L91.1563333,13.2595556 L91.1563333,11.615 L95.3702222,11.615 L95.3702222,11.6104444 Z M91.4706667,21.1406667 C91.4706667,17.5827778 89.0972222,14.9815556 86.0768889,14.9815556 C83.0155556,14.9815556 80.4507778,17.5827778 80.4507778,21.1406667 C80.4507778,24.6621111 83.0155556,27.2268889 86.0768889,27.2268889 C89.0972222,27.2268889 91.4706667,24.6621111 91.4706667,21.1406667 L91.4706667,21.1406667 Z" id="Shape"></path>
                    <polygon id="Shape" points="102.327778 1 102.327778 30.6111111 98 30.6111111 98 1"></polygon>
                    <path d="M120.001444,24.4343333 L123.445444,26.7303333 C122.333889,28.3748889 119.655222,31.2084444 115.026778,31.2084444 C109.286778,31.2084444 105,26.7713333 105,21.1042222 C105,15.0954444 109.323222,11 114.530222,11 C119.773667,11 122.338444,15.1728889 123.176667,17.4278889 L123.636778,18.5758889 L110.129556,24.1701111 C111.163667,26.1973333 112.771778,27.2314444 115.026778,27.2314444 C117.286333,27.2314444 118.853444,26.1198889 120.001444,24.4343333 L120.001444,24.4343333 Z M109.400667,20.799 L118.429778,17.0497778 C117.933222,15.7878889 116.439,14.9086667 114.680556,14.9086667 C112.425556,14.9086667 109.286778,16.8994444 109.400667,20.799 L109.400667,20.799 Z" id="Shape"></path>
                    <path d="M15.9125556,18.6504444 L15.9125556,14.3636667 L30.3582222,14.3636667 C30.4994444,15.1107778 30.5723333,15.9945556 30.5723333,16.9512222 C30.5723333,20.1674444 29.6931111,24.1444444 26.8595556,26.978 C24.1034444,29.848 20.582,31.3786667 15.9171111,31.3786667 C7.27066667,31.3786667 0,24.3357778 0,15.6893333 C0,7.04288889 7.27066667,0 15.9171111,0 C20.7004444,0 24.108,1.87688889 26.6682222,4.32322222 L23.6433333,7.34811111 C21.8074444,5.62611111 19.3201111,4.28677778 15.9125556,4.28677778 C9.59855556,4.28677778 4.66033333,9.37533333 4.66033333,15.6893333 C4.66033333,22.0033333 9.59855556,27.0918889 15.9125556,27.0918889 C20.008,27.0918889 22.3404444,25.4473333 23.8346667,23.9531111 C25.0464444,22.7413333 25.8436667,21.0102222 26.158,18.6458889 L15.9125556,18.6504444 L15.9125556,18.6504444 Z" id="Shape"></path>
                </g>
            </g>
        </g>
    </g>
</svg>