<?xml version="1.0" encoding="UTF-8" standalone="no"?>
<svg width="121px" height="36px" viewBox="0 0 121 36" version="1.1" xmlns="http://www.w3.org/2000/svg" xmlns:xlink="http://www.w3.org/1999/xlink">
    <!-- Generator: sketchtool 39.1 (31720) - http://www.bohemiancoding.com/sketch -->
    <title>F7B042A5-3771-4514-8AE2-EBCF49895261</title>
    <desc>Created with sketchtool.</desc>
    <defs></defs>
    <g id="Blocks" stroke="none" stroke-width="1" fill="none" fill-rule="evenodd">
        <g id="Clients-2" transform="translate(-410.000000, -739.000000)">
            <g id="Group-7" transform="translate(350.000000, 637.000000)">
                <rect id="Rectangle-6" fill="#D8D8D8" opacity="0" x="0" y="0" width="240" height="240"></rect>
                <path d="M103.249702,116.0396 C103.249702,112.48328 105.869509,110 110.630459,110 C113.535429,110 115.912509,110.918 117.200347,111.81728 C117.384636,111.94568 117.713445,112.2572 117.516305,112.83656 C117.263636,113.46056 116.800247,114.39896 116.4678,115.00856 C116.274297,115.36376 115.780113,115.31696 115.526958,115.19 C114.609638,114.72992 113.105019,113.9516 111.722854,113.80808 C111.383618,113.7728 111.027165,113.7536 110.668772,113.76296 C109.451497,113.78984 108.434515,114.20816 108.076365,115.12736 C108.004347,115.31024 107.96555,115.49288 107.9607,115.67312 C107.927237,116.8844 109.630451,117.3224 111.693756,117.67328 C115.529626,118.32368 118.431686,119.4368 118.431686,123.34448 C118.431686,126.66296 115.767019,129.662 110.546075,129.57008 C107.104243,129.5012 104.662419,128.35016 103.35397,127.2332 C103.309353,127.19528 102.811289,126.6932 103.078265,126.08936 C103.383796,125.312 103.899562,124.42112 104.304269,123.94808 C104.529295,123.64424 105.123141,123.596 105.431824,123.78536 C106.510397,124.44872 108.285387,125.5124 110.331475,125.58296 C110.49297,125.58848 110.65301,125.58944 110.810141,125.58536 C112.650602,125.5412 113.764093,124.85048 113.740814,123.68696 C113.72093,122.66192 112.261656,122.06312 109.937922,121.62968 C106.231782,120.93872 103.250187,119.7296 103.250187,116.0396" id="Shape" fill="#FFFFFF"></path>
                <path d="M136.64462,120.827373 C134.031116,120.861213 131.63488,121.568253 131.565772,123.589773 C131.565044,125.193933 132.879798,125.981853 134.725108,125.878653 C136.495249,125.709933 137.845163,124.950093 138.439978,123.941853 C138.659912,123.568173 138.693375,122.169933 138.680038,121.572333 C138.676644,121.445133 138.422519,121.204413 138.311219,121.158093 C137.755928,120.926493 137.344916,120.854973 136.644377,120.826893 L136.64462,120.827373 Z M127.948381,112.681773 C129.170505,111.599373 131.593658,109.914573 135.455473,110.003373 C140.55178,110.108253 143.24409,112.472973 143.49482,118.129773 C143.598119,120.462573 143.426924,126.969453 143.386187,128.590653 C143.380125,128.823213 143.300589,128.984013 142.983904,128.990013 C142.144664,129.023373 140.205754,129.010173 139.314864,128.998653 C138.865297,128.977053 138.813163,128.756253 138.807343,128.525133 C138.803463,128.373933 138.790369,127.925613 138.780912,127.560093 C138.77582,127.366173 138.591774,127.371693 138.544732,127.421373 C137.349281,128.684733 135.391457,129.294813 133.309481,129.294813 C130.145052,129.294813 126.990323,127.452333 127.000022,123.803613 C127.009722,120.066813 129.686756,118.223613 132.627613,117.788973 C134.510752,117.511533 136.633465,117.758253 138.240898,118.390413 C138.343712,118.431213 138.553704,118.372173 138.555401,118.227933 C138.561948,117.751773 138.53867,116.844333 138.446283,116.414253 C138.210345,115.318413 137.28672,114.436653 135.346355,114.199053 C134.94674,114.150333 134.544457,114.134253 134.14169,114.165933 C132.599243,114.285933 130.74302,115.476333 129.974343,115.922013 C129.793449,116.026653 129.510227,115.950093 129.418567,115.833213 C128.96997,115.259613 127.842415,113.582013 127.753666,113.313933 C127.664916,113.046573 127.790038,112.821453 127.947896,112.680813 L127.948381,112.681773 L127.948381,112.681773 Z" id="Shape" fill="#FFFFFF"></path>
                <path d="M145.000186,119.647056 C144.969876,114.435456 148.638673,110.038896 154.596044,110.000256 C158.313339,109.976256 161.013894,111.644256 161.490134,112.430976 C161.586886,112.615776 161.537176,112.770096 161.470251,112.956096 C161.155505,113.613696 160.360639,114.884256 159.794194,115.604256 C159.552922,115.910976 159.291038,115.648176 158.986719,115.447776 C158.142144,114.890976 156.537379,114.210096 154.958074,114.210096 C152.092872,114.210576 149.959246,116.155056 149.98301,119.732496 C150.005319,123.165456 152.048982,125.052096 154.968016,125.120496 C156.493974,125.158416 157.972405,124.290336 158.767756,123.579216 C159.017515,123.363456 159.276004,123.471456 159.561409,123.692256 C160.121549,124.258896 160.924902,125.133696 161.370347,125.735856 C161.662056,126.070416 161.44382,126.397776 161.338824,126.529296 C160.130279,128.042976 157.796118,129.316896 154.707102,129.334176 C148.239058,129.379056 145.030497,124.877856 145.000671,119.647776" id="Shape" fill="#FFFFFF"></path>
                <path d="M175.899828,129.376859 C176.203419,129.354299 179.443261,128.911739 180.437692,128.686379 C180.684542,128.630699 180.772321,128.425259 180.634347,128.221739 C180.079057,127.397579 178.619055,125.057099 177.089944,122.961899 C175.683532,121.035419 174.201221,119.341019 173.721828,118.689179 C173.60495,118.530779 173.611255,118.374779 173.73856,118.251899 C174.650546,117.368699 178.465319,113.666699 179.899618,112.137899 C180.454908,111.543179 180.121491,111.287339 179.649858,111.148379 C178.738842,110.879579 177.265261,110.544539 176.427233,110.369579 C176.073932,110.295659 175.648371,110.321579 175.339445,110.635979 C173.905389,111.959579 169.528778,116.307179 168.222269,117.606779 C167.987059,117.841259 167.850055,117.789179 167.848842,117.454139 C167.838173,114.948539 167.788221,104.221019 167.697774,102.456539 C167.691469,102.223259 167.408004,102.046139 167.248207,102.037739 C166.426668,101.995259 164.351239,101.983019 163.533337,102.030539 C163.304189,102.056219 163.085225,102.287339 163.065341,102.482699 C162.876688,105.304139 163.145361,126.015659 163.257389,128.912939 C163.265391,129.122459 163.423006,129.284939 163.624027,129.296699 C164.439988,129.343499 166.458191,129.340379 167.400487,129.322859 C167.864119,129.322859 167.92086,129.000299 167.92086,129.000299 L167.990696,123.442619 C167.990696,123.442619 168.038465,123.195419 168.115818,123.113819 C168.448023,122.759819 169.367041,121.784939 169.758896,121.408139 C169.85298,121.317659 170.001381,121.324139 170.097405,121.452059 C170.562976,122.073659 171.890582,124.094459 173.121193,125.899259 C174.2519,127.557179 175.307437,129.028619 175.381153,129.132539 C175.551377,129.372539 175.750215,129.382139 175.900071,129.377579 L175.900071,129.376859 L175.899828,129.376859 Z" id="Shape" fill="#FFFFFF"></path>
                <path d="M121.655909,129.351181 C121.940829,129.360541 124.102583,129.358141 125.060398,129.356941 C125.382903,129.363181 125.55046,129.121501 125.56113,128.908141 C125.764575,124.845901 125.677522,105.505261 125.549005,102.451261 C125.538336,102.187261 125.424126,102.088141 125.242019,102.064141 C124.419995,101.955181 122.083895,101.980621 121.335102,102.174541 C121.188641,102.212221 121.102316,102.322381 121.097709,102.463981 C120.91439,110.335981 121.038057,128.484781 121.076855,128.828461 C121.11541,129.172621 121.297274,129.339181 121.656394,129.351181 L121.655909,129.351181 L121.655909,129.351181 Z" id="Shape" fill="#FFFFFF"></path>
                <path d="M63.0390566,121.396743 C61.7068442,121.406823 60.5783192,120.621063 60.1622149,119.394663 C60.1462109,119.347143 60.1323893,119.301063 60.1190526,119.254743 C59.6656057,117.684183 60.5448562,116.041143 62.120766,115.515063 L87.3973993,107.133543 C87.7046278,107.046423 88.0140386,107.002023 88.3205396,107.000103 C89.6881548,106.989543 90.847718,107.792583 91.2740065,109.044903 L91.3118342,109.165863 C91.7846799,110.801703 90.6098402,112.261863 89.2022149,112.729863 C89.201245,112.730583 88.9451809,112.816263 64.065738,121.223703 C63.7294113,121.336743 63.3843552,121.393863 63.0390566,121.396743 L63.0390566,121.396743 L63.0390566,121.396743 Z" id="Shape" fill="#FFFFFF"></path>
                <path d="M68.0518598,133.514093 C66.7092206,133.523693 65.5768158,132.748973 65.1655612,131.540093 C65.1500422,131.494013 65.1352506,131.447693 65.121914,131.401133 C64.6621624,129.811853 65.540443,128.151533 67.1216875,127.624733 L92.3992907,119.166413 C92.725918,119.058413 93.0632146,119.003213 93.402451,119.000093 C94.7487276,118.990013 95.9315693,119.804093 96.3488859,121.026653 L96.3876835,121.153853 C96.6318659,121.998893 96.4875873,122.948573 96.0021324,123.698093 C95.6403448,124.255373 94.4992105,124.745933 94.4992105,124.745933 L69.1255833,133.332893 C68.7720402,133.449773 68.4114651,133.511453 68.0518598,133.514573 L68.0518598,133.514093 L68.0518598,133.514093 Z" id="Shape" fill="#FFFFFF"></path>
                <path d="M88.5705919,132.953847 C87.2223755,132.964167 86.028622,132.122247 85.5989386,130.860327 L77.1628865,106.058727 L77.1206941,105.919527 C76.6636099,104.337927 77.5426179,102.688167 79.1180428,102.162567 C79.4332733,102.057687 79.7591731,102.002967 80.0872552,102.000087 C80.57465,101.996487 81.0462833,102.105207 81.4905157,102.322407 C82.2332472,102.688407 82.7887803,103.318407 83.0543013,104.096487 L91.489626,128.895927 L91.5141169,128.975607 C91.9879326,130.617687 91.1108644,132.268407 89.5354396,132.794007 C89.2233614,132.896967 88.8984316,132.950967 88.5705919,132.953847 L88.5705919,132.953847 L88.5705919,132.953847 Z" id="Shape" fill="#FFFFFF"></path>
                <path d="M76.570279,137.951458 C75.2220626,137.961778 74.0273391,137.119858 73.5974133,135.856258 L65.1635435,111.055618 C65.1489944,111.010018 65.1344453,110.964418 65.1203812,110.917618 C64.6645095,109.336498 65.5408502,107.686498 67.11579,107.160418 C67.4298081,107.057218 67.7544954,107.002738 68.0820926,107.000098 C69.4305516,106.989538 70.6245475,107.831218 71.0542309,109.093618 L79.4883431,133.895218 C79.5041047,133.938418 79.5184113,133.986178 79.531263,134.031778 C79.9881047,135.614098 79.111279,137.265058 77.5339143,137.791138 C77.2206237,137.894578 76.8964213,137.948578 76.5693091,137.951218 L76.570279,137.951218 L76.570279,137.951458 Z" id="Shape" fill="#FFFFFF"></path>
                <polygon id="Shape" fill="#FFFFFF" points="84.9296954 127.64256 90.8118958 125.652 88.88899 120 83 121.96968"></polygon>
                <polygon id="Shape" fill="#FFFFFF" points="71.9432745 131.68552 77.82499 129.6952 75.8875351 124 70 125.9704"></polygon>
                <polygon id="Shape" fill="#FFFFFF" points="79.9112665 115.57392 85.7939519 113.586 83.8935972 108 78 109.95432"></polygon>
                <polygon id="Shape" fill="#FFFFFF" points="67.9345451 119.6452 73.8172305 117.65728 71.8935972 112 66 113.95408 67.9345451 119.6452"></polygon>
            </g>
        </g>
    </g>
</svg>