<?xml version="1.0" encoding="UTF-8" standalone="no"?>
<svg width="54px" height="60px" viewBox="0 0 54 60" version="1.1" xmlns="http://www.w3.org/2000/svg" xmlns:xlink="http://www.w3.org/1999/xlink">
    <!-- Generator: sketchtool 39.1 (31720) - http://www.bohemiancoding.com/sketch -->
    <title>3B4DA294-D1C3-4625-92B6-91FF46D53B49</title>
    <desc>Created with sketchtool.</desc>
    <defs></defs>
    <g id="Blocks" stroke="none" stroke-width="1" fill="none" fill-rule="evenodd">
        <g id="Clients-2" transform="translate(-963.000000, -727.000000)">
            <g id="Group-5" transform="translate(870.000000, 637.000000)">
                <rect id="Rectangle-6" fill="#D8D8D8" opacity="0" x="0" y="0" width="240" height="240"></rect>
                <path d="M142.529641,92.8875 L142.896841,92.8875 C143.349558,92.8875 143.720347,92.739375 143.720347,92.3477083 C143.720347,92.053125 143.501378,91.7804167 142.926402,91.7804167 C142.746498,91.7804167 142.624028,91.7804167 142.52943,91.7933333 L142.52943,92.8875 L142.529641,92.8875 Z M142.529641,94.7904167 L141.913912,94.7904167 L141.913912,91.41625 C142.199606,91.3760417 142.487199,91.3210417 142.939494,91.3210417 C143.486598,91.3210417 143.827825,91.4308333 144.046582,91.59375 C144.237677,91.741875 144.347056,91.96875 144.347056,92.2945833 C144.347056,92.7264583 144.059673,93.008125 143.692474,93.1033333 L143.692474,93.1289583 C143.991048,93.1839583 144.181932,93.4529167 144.250769,93.9541667 C144.332486,94.4810417 144.4009,94.680625 144.456645,94.7904167 L143.827825,94.7904167 C143.746108,94.680625 143.675793,94.3714583 143.607167,93.9285417 C143.540442,93.520625 143.308594,93.3595833 142.883749,93.3595833 L142.52943,93.3595833 L142.52943,94.7904167 L142.529641,94.7904167 Z M143.089837,90.5122917 C141.735908,90.5122917 140.641701,91.6320833 140.641701,93.035625 C140.641701,94.4391667 141.735908,95.5589583 143.102717,95.5589583 C144.456434,95.5735417 145.537761,94.4391667 145.537761,93.035625 C145.537761,91.6320833 144.456434,90.5122917 143.102717,90.5122917 L143.089837,90.5122917 L143.089837,90.5122917 Z M143.102717,90 C144.795972,90 146.1499,91.3504167 146.1499,93.0229167 C146.1499,94.7229167 144.795972,96.0714583 143.089837,96.0714583 C141.38159,96.0714583 140,94.7229167 140,93.0229167 C140,91.3504167 141.38159,90 143.089837,90 L143.102717,90 L143.102717,90 Z" id="Shape" fill="#FFFFFF"></path>
                <path d="M99.5227689,143.574167 L99.0090279,140.571667 C98.8624861,139.70625 98.6751912,138.35375 98.5324502,137.416875 L98.4767052,137.416875 C98.3265737,138.360833 98.1168964,139.751667 97.9629641,140.578958 L97.4101594,143.574167 L99.5227689,143.574167 L99.5227689,143.574167 Z M97.1341793,145.530625 L96.466506,148.862708 L94,148.862708 L97.076745,135 L100.099645,135 L102.894498,148.862708 L100.415112,148.862708 L99.7622191,145.530625 L97.1341793,145.530625 L97.1341793,145.530625 Z" id="Shape" fill="#FFFFFF"></path>
                <path d="M108.020008,143.038333 C108.020008,142.853542 108.020008,142.6375 107.982845,142.439792 C107.884657,141.755417 107.515558,141.138958 106.922,141.138958 C105.903809,141.138958 105.529219,142.58625 105.529219,144.278958 C105.529219,146.223958 106.063231,147.331042 106.886737,147.331042 C107.263227,147.331042 107.697151,147.140625 107.932801,146.324375 C107.990235,146.161667 108.020008,145.943958 108.020008,145.689583 L108.020008,143.038333 L108.020008,143.038333 Z M110.55155,135 L110.55155,146.355833 C110.55155,147.255833 110.598004,148.363125 110.635167,149.228542 L108.448653,149.228542 L108.305912,148.07375 L108.253968,148.07375 C107.886769,148.785833 107.087546,149.39125 106.132279,149.39125 C104.038462,149.39125 103,147.111458 103,144.232917 C103,140.725417 104.548402,139.019792 106.236167,139.019792 C107.119008,139.019792 107.690183,139.44625 107.977777,140.063125 L108.02043,140.063125 L108.02043,135 L110.55155,135 L110.55155,135 Z" id="Shape" fill="#FFFFFF"></path>
                <path d="M115.844506,147.455625 C116.810753,147.455625 117.049992,145.65875 117.049992,144.171042 C117.049992,142.756667 116.810753,140.91375 115.802064,140.91375 C114.733618,140.91375 114.509159,142.756667 114.509159,144.171042 C114.509159,145.878333 114.791052,147.455625 115.822124,147.455625 L115.844506,147.455625 L115.844506,147.455625 Z M115.796363,149.371458 C113.463307,149.371458 112,147.523333 112,144.215208 C112,140.604792 113.878649,139 115.855697,139 C118.157291,139 119.600116,140.938125 119.600116,144.156667 C119.600116,148.292083 117.339486,149.371458 115.816845,149.371458 L115.796363,149.371458 L115.796363,149.371458 Z" id="Shape" fill="#FFFFFF"></path>
                <path d="M123.616849,145.642083 C123.616849,145.892708 123.663303,146.127083 123.717147,146.284167 C123.971167,147.124375 124.401502,147.331042 124.746319,147.331042 C125.725657,147.331042 126.120729,146.106667 126.120729,144.14875 C126.120729,142.366458 125.703275,141.138958 124.735127,141.138958 C124.25496,141.138958 123.850598,141.653333 123.711446,142.205833 C123.663092,142.379583 123.616849,142.650208 123.616849,142.836875 L123.616849,145.642083 L123.616849,145.642083 Z M121.085096,135 L123.616637,135 L123.616637,140.233125 L123.65739,140.233125 C124.156139,139.460833 124.820223,139.019792 125.78457,139.019792 C127.692992,139.019792 128.651849,141.160833 128.651849,143.960417 C128.651849,147.497708 127.221904,149.39125 125.369016,149.39125 C124.486175,149.39125 123.898319,149.005 123.367896,148.026458 L123.314474,148.026458 L123.173633,149.228542 L121,149.228542 C121.037163,148.396042 121.085096,147.255833 121.085096,146.355833 L121.085096,135 L121.085096,135 Z" id="Shape" fill="#FFFFFF"></path>
                <path d="M135.017052,143.245208 C135.030143,141.834583 134.610789,140.846042 133.807765,140.846042 C132.891562,140.846042 132.50198,142.169375 132.474319,143.245208 L135.017052,143.245208 L135.017052,143.245208 Z M132.465028,145.01125 C132.494801,146.828125 133.462948,147.419375 134.664633,147.419375 C135.426693,147.419375 136.079586,147.2525 136.561865,147.073542 L136.903092,148.870417 C136.231618,149.155625 135.194845,149.335 134.200725,149.335 C131.483789,149.335 130,147.503125 130,144.374375 C130,141.016667 131.721127,139 133.968876,139 C136.14061,139 137.344195,140.782292 137.344195,143.691667 C137.344195,144.357708 137.316323,144.732917 137.271769,145.025417 L132.465028,145.01125 L132.465028,145.01125 Z" id="Shape" fill="#FFFFFF"></path>
                <polygon id="Shape" fill="#FFFFFF" points="121 90 137.194351 90 137.194351 128.2525"></polygon>
                <polygon id="Shape" fill="#FFFFFF" points="109.203641 90 93 90 93 128.2525"></polygon>
                <polygon id="Shape" fill="#FFFFFF" points="115.082785 104 125.399837 128.155417 118.639908 128.155417 115.553661 120.46125 108 120.46125"></polygon>
            </g>
        </g>
    </g>
</svg>