<?xml version="1.0" encoding="UTF-8" standalone="no"?>
<svg width="124px" height="41px" viewBox="0 0 124 41" version="1.1" xmlns="http://www.w3.org/2000/svg" xmlns:xlink="http://www.w3.org/1999/xlink">
    <!-- Generator: sketchtool 39.1 (31720) - http://www.bohemiancoding.com/sketch -->
    <title>FC459CA6-512B-4774-8EED-0EFA2F224243</title>
    <desc>Created with sketchtool.</desc>
    <defs></defs>
    <g id="Blocks" stroke="none" stroke-width="1" fill="none" fill-rule="evenodd">
        <g id="Clients-2" transform="translate(-408.000000, -477.000000)">
            <g id="Group-2" transform="translate(350.000000, 377.000000)">
                <rect id="Rectangle-6" fill="#D8D8D8" opacity="0" x="0" y="0" width="240" height="240"></rect>
                <path d="M111.272222,121.104222 C111.272222,126.921667 106.721222,131.208444 101.136111,131.208444 C95.551,131.208444 91,126.921667 91,121.104222 C91,115.245778 95.551,111 101.136111,111 C106.721222,111 111.272222,115.245778 111.272222,121.104222 L111.272222,121.104222 Z M106.835111,121.104222 C106.835111,117.468889 104.197444,114.981556 101.136111,114.981556 C98.0747778,114.981556 95.4371111,117.468889 95.4371111,121.104222 C95.4371111,124.703111 98.0747778,127.226889 101.136111,127.226889 C104.197444,127.226889 106.835111,124.698556 106.835111,121.104222 L106.835111,121.104222 Z" id="Shape" fill="#FFFFFF"></path>
                <path d="M133.272222,121.104222 C133.272222,126.921667 128.721222,131.208444 123.136111,131.208444 C117.551,131.208444 113,126.921667 113,121.104222 C113,115.250333 117.551,111 123.136111,111 C128.721222,111 133.272222,115.245778 133.272222,121.104222 L133.272222,121.104222 Z M128.835111,121.104222 C128.835111,117.468889 126.197444,114.981556 123.136111,114.981556 C120.074778,114.981556 117.437111,117.468889 117.437111,121.104222 C117.437111,124.703111 120.074778,127.226889 123.136111,127.226889 C126.197444,127.226889 128.835111,124.698556 128.835111,121.104222 L128.835111,121.104222 Z" id="Shape" fill="#FFFFFF"></path>
                <path d="M153.370222,111.610444 L153.370222,129.750667 C153.370222,137.212667 148.969556,140.260333 143.767111,140.260333 C138.869889,140.260333 135.922444,136.984889 134.810889,134.306222 L138.674,132.698111 C139.361889,134.342667 141.047444,136.283333 143.762556,136.283333 C147.092667,136.283333 149.156333,134.228778 149.156333,130.361111 L149.156333,128.907889 L149.001444,128.907889 C148.008333,130.133333 146.095,131.203889 143.680556,131.203889 C138.628444,131.203889 134,126.803222 134,121.140667 C134,115.437111 138.628444,111 143.680556,111 C146.090444,111 148.003778,112.070556 149.001444,113.259556 L149.156333,113.259556 L149.156333,111.615 L153.370222,111.615 L153.370222,111.610444 Z M149.470667,121.140667 C149.470667,117.582778 147.097222,114.981556 144.076889,114.981556 C141.015556,114.981556 138.450778,117.582778 138.450778,121.140667 C138.450778,124.662111 141.015556,127.226889 144.076889,127.226889 C147.097222,127.226889 149.470667,124.662111 149.470667,121.140667 L149.470667,121.140667 Z" id="Shape" fill="#FFFFFF"></path>
                <polygon id="Shape" fill="#FFFFFF" points="160.327778 101 160.327778 130.611111 156 130.611111 156 101"></polygon>
                <path d="M178.001444,124.434333 L181.445444,126.730333 C180.333889,128.374889 177.655222,131.208444 173.026778,131.208444 C167.286778,131.208444 163,126.771333 163,121.104222 C163,115.095444 167.323222,111 172.530222,111 C177.773667,111 180.338444,115.172889 181.176667,117.427889 L181.636778,118.575889 L168.129556,124.170111 C169.163667,126.197333 170.771778,127.231444 173.026778,127.231444 C175.286333,127.231444 176.853444,126.119889 178.001444,124.434333 L178.001444,124.434333 Z M167.400667,120.799 L176.429778,117.049778 C175.933222,115.787889 174.439,114.908667 172.680556,114.908667 C170.425556,114.908667 167.286778,116.899444 167.400667,120.799 L167.400667,120.799 Z" id="Shape" fill="#FFFFFF"></path>
                <path d="M73.9125556,118.650444 L73.9125556,114.363667 L88.3582222,114.363667 C88.4994444,115.110778 88.5723333,115.994556 88.5723333,116.951222 C88.5723333,120.167444 87.6931111,124.144444 84.8595556,126.978 C82.1034444,129.848 78.582,131.378667 73.9171111,131.378667 C65.2706667,131.378667 58,124.335778 58,115.689333 C58,107.042889 65.2706667,100 73.9171111,100 C78.7004444,100 82.108,101.876889 84.6682222,104.323222 L81.6433333,107.348111 C79.8074444,105.626111 77.3201111,104.286778 73.9125556,104.286778 C67.5985556,104.286778 62.6603333,109.375333 62.6603333,115.689333 C62.6603333,122.003333 67.5985556,127.091889 73.9125556,127.091889 C78.008,127.091889 80.3404444,125.447333 81.8346667,123.953111 C83.0464444,122.741333 83.8436667,121.010222 84.158,118.645889 L73.9125556,118.650444 L73.9125556,118.650444 Z" id="Shape" fill="#FFFFFF"></path>
            </g>
        </g>
    </g>
</svg>