<?xml version="1.0" encoding="UTF-8" standalone="no"?>
<svg width="54px" height="60px" viewBox="0 0 54 60" version="1.1" xmlns="http://www.w3.org/2000/svg" xmlns:xlink="http://www.w3.org/1999/xlink">
    <!-- Generator: sketchtool 39.1 (31720) - http://www.bohemiancoding.com/sketch -->
    <title>27CBB196-B1BD-4B57-951C-42E2B5D09ED6</title>
    <desc>Created with sketchtool.</desc>
    <defs></defs>
    <g id="Blocks" stroke="none" stroke-width="1" fill="none" fill-rule="evenodd">
        <g id="Clients-1" transform="translate(-963.000000, -729.000000)">
            <g id="Group-5" transform="translate(870.000000, 639.000000)">
                <rect id="Rectangle-6" fill="#D8D8D8" opacity="0" x="0" y="0" width="240" height="240"></rect>
                <g id="Group-12" transform="translate(93.000000, 90.000000)" fill="#AAB2B8">
                    <path d="M49.5296414,2.8875 L49.8968406,2.8875 C50.3495578,2.8875 50.7203466,2.739375 50.7203466,2.34770833 C50.7203466,2.053125 50.5013785,1.78041667 49.9264024,1.78041667 C49.746498,1.78041667 49.6240279,1.78041667 49.5294303,1.79333333 L49.5294303,2.8875 L49.5296414,2.8875 Z M49.5296414,4.79041667 L48.9139124,4.79041667 L48.9139124,1.41625 C49.1996056,1.37604167 49.4871992,1.32104167 49.939494,1.32104167 C50.4865976,1.32104167 50.8278247,1.43083333 51.0465817,1.59375 C51.2376773,1.741875 51.3470558,1.96875 51.3470558,2.29458333 C51.3470558,2.72645833 51.0596733,3.008125 50.6924741,3.10333333 L50.6924741,3.12895833 C50.9910478,3.18395833 51.1819323,3.45291667 51.2507689,3.95416667 C51.3324861,4.48104167 51.4009004,4.680625 51.4566454,4.79041667 L50.8278247,4.79041667 C50.7461076,4.680625 50.6757928,4.37145833 50.6071673,3.92854167 C50.5404422,3.520625 50.3085936,3.35958333 49.883749,3.35958333 L49.5294303,3.35958333 L49.5294303,4.79041667 L49.5296414,4.79041667 Z M50.0898367,0.512291667 C48.7359084,0.512291667 47.6417012,1.63208333 47.6417012,3.035625 C47.6417012,4.43916667 48.7359084,5.55895833 50.1027171,5.55895833 C51.4564343,5.57354167 52.537761,4.43916667 52.537761,3.035625 C52.537761,1.63208333 51.4564343,0.512291667 50.1027171,0.512291667 L50.0898367,0.512291667 L50.0898367,0.512291667 Z M50.1027171,7.40148683e-16 C51.7959721,7.40148683e-16 53.1499004,1.35041667 53.1499004,3.02291667 C53.1499004,4.72291667 51.7959721,6.07145833 50.0898367,6.07145833 C48.3815896,6.07145833 47,4.72291667 47,3.02291667 C47,1.35041667 48.3815896,0 50.0898367,0 L50.1027171,0 L50.1027171,7.40148683e-16 Z" id="Shape"></path>
                    <path d="M6.52276892,53.5741667 L6.00902789,50.5716667 C5.86248606,49.70625 5.67519124,48.35375 5.5324502,47.416875 L5.47670518,47.416875 C5.32657371,48.3608333 5.11689641,49.7516667 4.96296414,50.5789583 L4.41015936,53.5741667 L6.52276892,53.5741667 L6.52276892,53.5741667 Z M4.13417928,55.530625 L3.46650598,58.8627083 L1,58.8627083 L4.07674502,45 L7.09964542,45 L9.89449801,58.8627083 L7.41511155,58.8627083 L6.76221912,55.530625 L4.13417928,55.530625 L4.13417928,55.530625 Z" id="Shape"></path>
                    <path d="M15.020008,53.0383333 C15.020008,52.8535417 15.020008,52.6375 14.9828446,52.4397917 C14.8846574,51.7554167 14.5155578,51.1389583 13.922,51.1389583 C12.9038088,51.1389583 12.5292191,52.58625 12.5292191,54.2789583 C12.5292191,56.2239583 13.0632311,57.3310417 13.8867371,57.3310417 C14.2632271,57.3310417 14.6971514,57.140625 14.9328008,56.324375 C14.9902351,56.1616667 15.020008,55.9439583 15.020008,55.6895833 L15.020008,53.0383333 L15.020008,53.0383333 Z M17.5515498,45 L17.5515498,56.3558333 C17.5515498,57.2558333 17.598004,58.363125 17.6351673,59.2285417 L15.4486534,59.2285417 L15.3059124,58.07375 L15.2539681,58.07375 C14.8867689,58.7858333 14.0875458,59.39125 13.1322789,59.39125 C11.0384622,59.39125 10,57.1114583 10,54.2329167 C10,50.7254167 11.5484024,49.0197917 13.2361673,49.0197917 C14.119008,49.0197917 14.6901833,49.44625 14.9777769,50.063125 L15.0204303,50.063125 L15.0204303,45 L17.5515498,45 L17.5515498,45 Z" id="Shape"></path>
                    <path d="M22.844506,57.455625 C23.810753,57.455625 24.049992,55.65875 24.049992,54.1710417 C24.049992,52.7566667 23.810753,50.91375 22.8020637,50.91375 C21.7336175,50.91375 21.5091594,52.7566667 21.5091594,54.1710417 C21.5091594,55.8783333 21.7910518,57.455625 22.8221235,57.455625 L22.844506,57.455625 L22.844506,57.455625 Z M22.7963625,59.3714583 C20.4633068,59.3714583 19,57.5233333 19,54.2152083 C19,50.6047917 20.8786494,49 22.8556972,49 C25.1572908,49 26.6001155,50.938125 26.6001155,54.1566667 C26.6001155,58.2920833 24.3394861,59.3714583 22.8168446,59.3714583 L22.7963625,59.3714583 L22.7963625,59.3714583 Z" id="Shape"></path>
                    <path d="M30.6168486,55.6420833 C30.6168486,55.8927083 30.6633028,56.1270833 30.7171474,56.2841667 C30.9711673,57.124375 31.401502,57.3310417 31.7463187,57.3310417 C32.7256574,57.3310417 33.1207291,56.1066667 33.1207291,54.14875 C33.1207291,52.3664583 32.7032749,51.1389583 31.7351275,51.1389583 C31.2549602,51.1389583 30.8505976,51.6533333 30.7114462,52.2058333 C30.6630916,52.3795833 30.6168486,52.6502083 30.6168486,52.836875 L30.6168486,55.6420833 L30.6168486,55.6420833 Z M28.0850956,45 L30.6166375,45 L30.6166375,50.233125 L30.6573904,50.233125 C31.1561394,49.4608333 31.8202231,49.0197917 32.7845697,49.0197917 C34.692992,49.0197917 35.6518486,51.1608333 35.6518486,53.9604167 C35.6518486,57.4977083 34.2219044,59.39125 32.3690159,59.39125 C31.4861753,59.39125 30.8983187,59.005 30.3678964,58.0264583 L30.3144741,58.0264583 L30.1736335,59.2285417 L28,59.2285417 C28.0371633,58.3960417 28.0850956,57.2558333 28.0850956,56.3558333 L28.0850956,45 L28.0850956,45 Z" id="Shape"></path>
                    <path d="M42.0170518,53.2452083 C42.0301434,51.8345833 41.6107888,50.8460417 40.8077649,50.8460417 C39.8915618,50.8460417 39.5019801,52.169375 39.4743187,53.2452083 L42.0170518,53.2452083 L42.0170518,53.2452083 Z M39.4650279,55.01125 C39.4948008,56.828125 40.4629482,57.419375 41.6646335,57.419375 C42.4266932,57.419375 43.0795857,57.2525 43.5618645,57.0735417 L43.9030916,58.8704167 C43.2316175,59.155625 42.1948446,59.335 41.2007251,59.335 C38.4837888,59.335 37,57.503125 37,54.374375 C37,51.0166667 38.7211275,49 40.9688765,49 C43.1406096,49 44.3441952,50.7822917 44.3441952,53.6916667 C44.3441952,54.3577083 44.3163227,54.7329167 44.2717689,55.0254167 L39.4650279,55.01125 L39.4650279,55.01125 Z" id="Shape"></path>
                    <polygon id="Shape" points="28 0 44.1943506 0 44.1943506 38.2525"></polygon>
                    <polygon id="Shape" points="16.2036414 0 0 0 0 38.2525"></polygon>
                    <polygon id="Shape" points="22.0827849 14 32.3998367 38.1554167 25.6399084 38.1554167 22.5536614 30.46125 15 30.46125"></polygon>
                </g>
            </g>
        </g>
    </g>
</svg>