<?xml version="1.0" encoding="UTF-8" standalone="no"?>
<svg width="120px" height="33px" viewBox="0 0 120 33" version="1.1" xmlns="http://www.w3.org/2000/svg" xmlns:xlink="http://www.w3.org/1999/xlink">
    <!-- Generator: sketchtool 39.1 (31720) - http://www.bohemiancoding.com/sketch -->
    <title>076D79D0-1888-4599-BF55-288DB5F685C9</title>
    <desc>Created with sketchtool.</desc>
    <defs></defs>
    <g id="Blocks" stroke="none" stroke-width="1" fill="none" fill-rule="evenodd">
        <g id="Clients-1" transform="translate(-670.000000, -743.000000)">
            <g id="Group-6" transform="translate(610.000000, 639.000000)">
                <rect id="Rectangle-6" fill="#D8D8D8" opacity="0" x="0" y="0" width="240" height="240"></rect>
                <g id="Group-11" transform="translate(60.000000, 104.000000)" fill="#AAB2B8">
                    <path d="M102,30.1303567 C103.658058,30.290056 105.313593,30.4623301 106.966603,30.6408916 L110.615846,21.6612631 L114.084645,31.4683101 C115.865101,31.6908831 117.643034,31.923516 119.417182,32.1674661 L113.336373,14.9689815 L119.419706,0 L114.267612,0 L114.214614,0.0729335458 L110.928782,8.1597548 L108.044215,0 L102.957737,0 L108.209516,14.8507789 L102,30.1303567 L102,30.1303567 Z" id="path3015"></path>
                    <path d="M98.0852165,29.7782638 L98.0852165,0 L93,0 L93,29.3607821 C94.6971752,29.490302 96.3930886,29.6311392 98.0852165,29.7782638" id="path3019"></path>
                    <path d="M59.9930683,28.1133167 C61.3659506,28.1133167 62.7363092,28.1233765 64.1054059,28.134744 L64.1054059,17.1947122 L70.2139749,17.1947122 L70.2139749,12.5357676 L64.1054059,12.5357676 L64.1054059,4.66397451 L71.1401657,4.66397451 L71.1401657,0 L59,0 L59,28.1171394 C59.3306022,28.1171394 59.6612043,28.1131155 59.9930683,28.1131155" id="path3023"></path>
                    <path d="M43.7533525,28.3975563 C45.4467422,28.3371975 47.1426556,28.2868985 48.8410926,28.2454018 L48.8410926,4.66397451 L53.5931833,4.66397451 L53.5931833,0 L39,0 L39,4.66397451 L43.7533525,4.66397451 L43.7533525,28.3975563 L43.7533525,28.3975563 Z" id="path3035"></path>
                    <path d="M4.87827467,31.5374712 L4.87827467,13.7957574 L10.8985148,30.8207105 C12.7496346,30.6132271 14.6045398,30.4183185 16.4632306,30.2347272 L16.4632306,0 L11.584956,0 L11.584956,18.3767386 L5.08774016,0 L4.87827467,0 L0,0 L0,32.175011 L0.0302841676,32.175011 C1.64291609,31.9524379 3.25933354,31.7411821 4.87827467,31.5374712" id="path3039"></path>
                    <path d="M34.1414275,4.66397451 L34.1414275,0 L22,0 L22,25.0614753 L22,29.7267073 L22,29.7307312 C26.0290561,29.3836681 30.0719925,29.0931914 34.1313328,28.8567861 L34.1313328,28.8527622 L34.1313328,27.5085215 L34.1313328,24.1887877 C31.7843098,24.324595 29.4423342,24.4817794 27.1054059,24.6553109 L27.1054059,17.1959696 L33.2139749,17.1959696 L33.2139749,12.5345101 L27.1054059,12.5345101 L27.1054059,4.66397451 L34.1414275,4.66397451 L34.1414275,4.66397451 Z" id="path3051"></path>
                    <path d="M81.1066678,23.9662146 L81.1066678,0 L76,0 L76,23.7461565 L76,28.410131 L76,28.4151609 C80.061864,28.563543 84.1085859,28.7710263 88.1414275,29.0313236 L88.1414275,29.0252878 L88.1414275,27.5188328 L88.1414275,24.3613133 C85.8007137,24.2104163 83.4562144,24.0796389 81.1066678,23.9664661" id="path3055"></path>
                </g>
            </g>
        </g>
    </g>
</svg>