<?xml version="1.0" encoding="UTF-8" standalone="no"?>
<svg width="131px" height="19px" viewBox="0 0 131 19" version="1.1" xmlns="http://www.w3.org/2000/svg" xmlns:xlink="http://www.w3.org/1999/xlink">
    <!-- Generator: sketchtool 39.1 (31720) - http://www.bohemiancoding.com/sketch -->
    <title>FF99C80A-85C1-41FD-B95B-639FB5C0982E</title>
    <desc>Created with sketchtool.</desc>
    <defs></defs>
    <g id="Blocks" stroke="none" stroke-width="1" fill="none" fill-rule="evenodd">
        <g id="Clients-1" transform="translate(-925.000000, -490.000000)">
            <g id="Group-4" transform="translate(870.000000, 379.000000)">
                <rect id="Rectangle-6" fill="#D8D8D8" opacity="0" x="0" y="0" width="240" height="240"></rect>
                <path d="M59.7554375,111.00101 C56.5846875,111.00101 55.5775,111.028597 55.5775,111.028597 C55.0935,111.030666 55,111.155493 55,111.607907 L55,128.978942 C55,129.452735 55.1079375,129.558252 55.5775,129.558252 L59.2054375,129.558252 C59.6949375,129.558252 59.7829375,129.429976 59.7829375,128.978942 L59.7829375,115.357562 C59.7829375,115.357562 65.7669375,124.768597 67.782,127.931355 C68.80225,129.532735 68.9734375,129.555493 71.905625,129.557562 L76.8260625,129.557562 C77.3045625,129.557562 77.4035625,129.454114 77.4035625,128.978252 L77.4035625,111.607217 C77.4035625,111.149286 77.323125,111.027907 76.8260625,111.027907 L73.1974375,111.027907 C72.7161875,111.027907 72.620625,111.149976 72.620625,111.607217 L72.620625,125.4217 C72.620625,125.4217 65.3448125,114.067217 64.4015625,112.598942 C63.3056875,110.904459 62.9220625,111.00101 59.7554375,111.00101 L59.7554375,111.00101 Z M167.977563,111.00101 C164.814375,111.00101 163.799625,111.028597 163.799625,111.028597 C163.316313,111.030666 163.222125,111.155493 163.222125,111.607907 L163.222125,128.978942 C163.2235,129.452735 163.332125,129.558252 163.799625,129.558252 L167.427563,129.558252 C167.91775,129.558252 168.005063,129.429976 168.005063,128.978942 L168.005063,115.357562 C168.005063,115.357562 173.988375,124.768597 176.004125,127.931355 C177.024375,129.532735 177.214813,129.555493 180.154563,129.557562 L185.0475,129.557562 C185.528063,129.557562 185.625,129.454114 185.625,128.978252 L185.625,111.607217 C185.625,111.149286 185.544563,111.027907 185.0475,111.027907 L181.419563,111.027907 C180.939,111.027907 180.842063,111.149976 180.842063,111.607217 L180.842063,125.4217 C180.842063,125.4217 173.572438,114.067217 172.623,112.598942 C171.53125,110.904459 171.150375,111.00101 167.977563,111.00101 L167.977563,111.00101 Z M82.2958125,111.028597 C81.9451875,111.028597 81.8558125,111.194804 81.8558125,111.497562 L81.8558125,128.979631 C81.8558125,129.463079 81.9479375,129.558942 82.4333125,129.558942 L86.63875,129.558942 C87.1096875,129.558942 87.21625,129.432045 87.21625,128.979631 L87.21625,111.525148 C87.21625,111.183079 87.09525,111.028597 86.72125,111.028597 L82.2958125,111.028597 L82.2958125,111.028597 Z M97.552125,111.028597 C94.1359375,111.028597 92.2191875,112.274114 91.6966875,114.8617 C91.579125,115.443079 91.5591875,116.154114 91.5591875,116.654114 C91.5591875,117.258942 91.5756875,117.883769 91.6416875,118.363769 C91.8451875,119.847217 92.7664375,121.585838 96.699625,121.976183 C99.8256875,122.285838 104.315063,122.672045 105.8255,122.803079 C106.508188,122.8617 106.636063,123.364459 106.678,123.657562 C106.6945,123.767217 106.7055,123.931355 106.7055,124.154114 C106.7055,124.350666 106.702063,124.556183 106.678,124.843769 C106.642938,125.253424 106.444938,125.450666 105.908,125.450666 L92.2185,125.450666 C91.7393125,125.450666 91.642375,125.559631 91.641,126.029976 L91.641,128.952045 C91.6403125,129.428597 91.757875,129.531355 92.2185,129.531355 L105.743,129.531355 C109.094563,129.531355 111.284938,128.977562 111.87275,126.057562 C111.998563,125.440321 112.01025,124.635493 112.01025,124.072045 C112.01025,123.196873 111.955938,122.406528 111.90025,122.114114 C111.295938,119.053424 109.011375,118.467217 105.743,118.143079 C103.998813,117.970666 99.22275,117.513424 97.6614375,117.371355 C97.0908125,117.316183 96.9381875,116.972735 96.892125,116.598942 C96.8708125,116.431355 96.864625,116.296873 96.864625,116.185148 C96.864625,116.015493 96.8790625,115.927217 96.892125,115.798942 C96.9423125,115.274804 97.2118125,115.054114 97.7714375,115.054114 L110.690937,115.054114 C111.161875,115.056873 111.268437,114.984459 111.268437,114.50239 L111.268437,111.552735 C111.268437,111.107907 111.141937,111.029286 110.690937,111.028597 L97.552125,111.028597 L97.552125,111.028597 Z M121.301813,111.028597 C117.88425,111.028597 115.968188,112.274114 115.446375,114.8617 C115.328125,115.443079 115.308875,116.154114 115.308875,116.654114 C115.308875,117.258942 115.326063,117.883769 115.391375,118.363769 C115.598313,119.847217 116.488625,121.585838 120.421813,121.976183 C123.5465,122.285838 128.06475,122.672045 129.575188,122.803079 C130.255813,122.8617 130.382313,123.364459 130.427,123.657562 C130.442125,123.767217 130.4545,123.931355 130.4545,124.154114 C130.4545,124.350666 130.451063,124.556183 130.427,124.843769 C130.389875,125.253424 130.193938,125.450666 129.657,125.450666 L115.968188,125.450666 C115.486938,125.450666 115.392063,125.559631 115.390688,126.029976 L115.390688,128.952045 C115.388625,129.428597 115.478688,129.531355 115.940688,129.531355 L129.492688,129.531355 C132.843563,129.531355 135.031188,128.977562 135.622438,126.057562 C135.7455,125.440321 135.759938,124.635493 135.759938,124.072045 C135.759938,123.196873 135.709063,122.406528 135.649938,122.114114 C135.045625,119.053424 132.758313,118.467217 129.492688,118.143079 C127.745063,117.970666 122.975875,117.513424 121.411125,117.371355 C120.8405,117.316183 120.66175,116.972735 120.613625,116.598942 C120.5985,116.431355 120.613625,116.296873 120.613625,116.185148 C120.613625,116.015493 120.60675,115.927217 120.613625,115.798942 C120.668625,115.274804 120.951188,115.054114 121.521125,115.054114 L134.439938,115.054114 C134.90675,115.056873 135.017438,114.984459 135.017438,114.50239 L135.017438,111.552735 C135.017438,111.107907 134.888188,111.029286 134.439938,111.028597 L121.301813,111.028597 L121.301813,111.028597 Z M149.010125,111.028597 C148.117063,111.027217 147.90325,111.043769 147.223313,111.056183 C144.417625,111.106528 144.858313,110.90239 143.897188,112.931355 C143.897188,112.928597 139.064063,123.952045 136.970625,128.538252 C136.970625,128.539631 136.887438,128.731355 136.887438,128.731355 C136.497625,129.509286 136.760938,129.559631 137.383125,129.558252 L141.780375,129.530666 C142.058125,129.530666 142.231375,129.383079 142.302875,129.227907 C142.302875,129.227907 142.907875,127.776873 143.732188,125.836183 L154.343063,125.836183 C155.137813,127.728597 155.742813,129.131355 155.772375,129.200321 C155.866563,129.416183 156.054938,129.558942 156.294875,129.558942 L160.802813,129.558942 C161.473125,129.558942 161.608563,129.6417 161.3535,129.034804 C160.551875,127.125148 155.340625,115.674804 154.59125,113.924459 C153.240313,110.796183 153.750438,111.160321 150.769438,111.056873 C150.495813,111.046528 149.89975,111.029286 149.010125,111.028597 L149.010125,111.028597 Z M149.092625,115.109286 C149.307813,115.109286 149.537438,115.127907 149.615125,115.136873 C149.804875,115.164459 149.978125,115.236873 150.055125,115.440321 C150.393375,116.357562 151.546313,119.129976 152.721938,121.947907 L145.354688,121.947907 C146.732438,118.665148 148.066875,115.498252 148.103313,115.412735 C148.183063,115.231355 148.32675,115.16239 148.543313,115.136873 C148.639563,115.128597 148.863,115.109286 149.092625,115.109286 L149.092625,115.109286 Z" id="path2540" fill="#AAB2B8"></path>
            </g>
        </g>
    </g>
</svg>