<?xml version="1.0" encoding="UTF-8" standalone="no"?>
<svg width="45px" height="35px" viewBox="0 0 45 35" version="1.1" xmlns="http://www.w3.org/2000/svg" xmlns:xlink="http://www.w3.org/1999/xlink">
    <!-- Generator: sketchtool 39.1 (31720) - http://www.bohemiancoding.com/sketch -->
    <title>4BA066ED-95EF-4FBF-A19D-61782D1B1002</title>
    <desc>Created with sketchtool.</desc>
    <defs></defs>
    <g id="Blocks" stroke="none" stroke-width="1" fill="none" fill-rule="evenodd">
        <g id="Clients-2" transform="translate(-188.000000, -740.000000)">
            <g id="Group-8" transform="translate(90.000000, 637.000000)">
                <rect id="Rectangle-6" fill="#D8D8D8" opacity="0" x="0" y="0" width="240" height="240"></rect>
                <path d="M114.001333,103 C115.938533,103.360566 117.842664,103.87566 119.737535,104.412547 C120.821547,104.726887 121.902582,105.052123 122.976673,105.398491 C124.66387,105.935047 126.34379,106.542594 127.871923,107.448632 C128.556458,107.863679 129.213875,108.332547 129.775723,108.904434 C130.384529,109.498443 130.882883,110.203066 131.24863,110.969764 C131.914976,112.359198 132.143155,113.911415 132.210616,115.437547 C132.242363,116.433396 132.240378,117.43783 132.054198,118.420802 C131.899434,119.275 131.624297,120.117311 131.166618,120.859245 C130.762511,121.51467 130.200664,122.081274 129.518774,122.446462 C128.864664,122.798443 128.115644,122.966179 127.373899,122.951321 C126.248881,122.963208 125.157264,122.604953 124.147658,122.135755 C124.12947,118.783349 124.145012,115.430283 124.139721,112.078208 C124.132446,111.471651 124.173782,110.858821 124.051426,110.260519 C123.965446,109.796934 123.775959,109.329717 123.411535,109.015047 C123.169798,108.797453 122.856632,108.674623 122.541812,108.608255 C122.223355,108.54783 121.883733,108.682877 121.68664,108.938113 C121.358923,109.346887 121.272943,109.889717 121.258062,110.398538 C121.255416,119.373396 121.261369,128.348585 121.255416,137.322783 C118.837388,136.557736 116.41903,135.792028 114.001664,135.02467 C113.999018,124.34967 114.00001,113.675 114.001333,103 L114.001333,103 Z" id="Shape" fill="#FFFFFF"></path>
                <path d="M103.789346,122.350094 C106.941843,121.235708 110.091033,120.110755 113.244853,119 C113.249813,120.235896 113.244853,121.472123 113.246837,122.709009 C113.244853,122.876745 113.255766,123.045142 113.234601,123.211887 C110.741837,124.094151 108.254033,124.991934 105.763583,125.879811 C105.41834,126.009906 105.064168,126.1575 104.79796,126.42066 C104.67395,126.544151 104.573088,126.726415 104.64088,126.903396 C104.726199,127.111745 104.939166,127.225 105.135597,127.310849 C105.681902,127.532736 106.279134,127.564104 106.861154,127.590849 C107.509974,127.580613 108.161439,127.532075 108.797031,127.392075 C109.226601,127.307877 109.639968,127.163255 110.049366,127.009717 C111.113536,126.625047 112.177706,126.238066 113.24353,125.857358 C113.251467,126.902736 113.244853,127.948774 113.246837,128.995142 C113.24353,129.204151 113.256427,129.414481 113.235593,129.62283 C111.92671,129.857594 110.602284,130.017075 109.271906,130.037877 C106.592962,130.098302 103.907734,129.684245 101.363051,128.848208 C100.528381,128.60684 99.6990032,128.285566 99.0022329,127.756274 C98.618629,127.459764 98.2753696,127.086981 98.1007636,126.628349 C97.9545973,126.240047 97.9651795,125.791321 98.1473913,125.416557 C98.3229894,125.042783 98.6298725,124.747264 98.9678408,124.517783 C99.74993,123.978585 100.612377,123.5675 101.486399,123.20066 C102.239387,122.879717 103.020484,122.630094 103.789346,122.350094 L103.789346,122.350094 Z" id="Shape" fill="#FFFFFF"></path>
                <path d="M128.868149,124.127783 C129.583107,124.045236 130.302695,124.025755 131.021291,124 C133.386077,124.008915 135.762768,124.302783 138.024709,125.011038 C138.468499,125.145755 138.8984,125.320094 139.340537,125.460755 C140.128578,125.748349 140.917612,126.097028 141.548574,126.662642 C141.927879,127.008019 142.254604,127.473255 142.259234,128.004528 C142.281721,128.436745 142.08562,128.851462 141.804861,129.170425 C141.270461,129.768726 140.564101,130.179811 139.854764,130.538396 C139.099792,130.922736 138.288271,131.170708 137.496592,131.463255 C132.664505,133.195755 127.832087,134.927594 123.000661,136.662075 C123,135.310613 123.001984,133.959481 123,132.608679 C123.007275,132.554858 122.977513,132.460755 123.053903,132.446557 C126.730549,131.14033 130.406202,129.830472 134.082186,128.520943 C134.579218,128.335377 135.11461,128.200991 135.536574,127.864198 C135.709196,127.728821 135.87818,127.513538 135.793523,127.281415 C135.705228,127.078349 135.494246,126.965755 135.300129,126.881887 C134.749855,126.664292 134.15064,126.622028 133.565313,126.605849 C132.648962,126.612123 131.724345,126.725047 130.852968,127.018255 C128.23421,127.934528 125.620081,128.862028 123.000661,129.77533 C123.000992,128.324151 123,126.873962 123.001323,125.423113 C124.896525,124.759104 126.875392,124.356604 128.868149,124.127783 L128.868149,124.127783 Z" id="Shape" fill="#FFFFFF"></path>
                <path d="M139.467295,134.011819 C140.039063,133.940499 140.636295,134.196395 140.978893,134.659319 C141.352907,135.136772 141.42136,135.825546 141.157136,136.371017 C140.890598,136.936961 140.2808,137.333517 139.649507,137.312716 C139.068479,137.325593 138.505639,136.98781 138.21959,136.487574 C137.960988,136.046772 137.930233,135.48248 138.130303,135.013612 C138.355174,134.472433 138.884944,134.077197 139.467295,134.011819 L139.467295,134.011819 Z M139.342954,134.316583 C139.022843,134.389225 138.732164,134.583046 138.541023,134.849508 C138.311192,135.162857 138.224219,135.577574 138.311522,135.956961 C138.384936,136.309272 138.608154,136.623942 138.909416,136.819083 C139.373378,137.123517 140.023851,137.106678 140.467641,136.772197 C140.925651,136.449272 141.143247,135.828848 140.985837,135.291631 C140.888614,134.928423 140.628689,134.619366 140.301303,134.439414 C140.010293,134.284885 139.663065,134.24031 139.342954,134.316583 L139.342954,134.316583 Z" id="Shape" fill="#FFFFFF"></path>
                <path d="M139.001219,135.000991 C139.299174,134.99934 139.59812,135.00066 139.896405,135 C140.065059,135.002311 140.250908,135.041604 140.370289,135.170708 C140.490661,135.306415 140.500251,135.503538 140.467182,135.673585 C140.448663,135.785849 140.349455,135.852217 140.277695,135.930802 C140.340195,135.985943 140.419893,136.037783 140.434774,136.127594 C140.469166,136.299292 140.43279,136.480236 140.488015,136.648632 C140.522738,136.708066 140.558122,136.76816 140.560768,136.839481 C140.437089,136.842783 140.31374,136.840472 140.190061,136.842453 C140.106726,136.646651 140.168896,136.426415 140.116978,136.22467 C140.096475,136.142453 140.011156,136.091274 139.929805,136.093915 C139.728083,136.08533 139.525698,136.091274 139.324637,136.090943 C139.321661,136.341226 139.331912,136.5925 139.318685,136.842453 C139.213524,136.840802 139.108033,136.840802 139.002873,136.842783 C138.997582,136.227972 139.001219,135.614811 139.001219,135.000991 L139.001219,135.000991 Z M139.324637,135.292877 C139.324968,135.462264 139.324968,135.631651 139.324637,135.801698 C139.504865,135.802689 139.685423,135.804009 139.866312,135.802358 C139.95593,135.801698 140.060098,135.784858 140.1183,135.708915 C140.179479,135.61217 140.178156,135.483396 140.12293,135.385 C140.076633,135.307406 139.978417,135.299811 139.897728,135.294858 C139.706588,135.289245 139.515447,135.292547 139.324637,135.292877 L139.324637,135.292877 Z" id="Shape" fill="#FFFFFF"></path>
            </g>
        </g>
    </g>
</svg>