<?xml version="1.0" encoding="UTF-8" standalone="no"?>
<svg width="120px" height="33px" viewBox="0 0 120 33" version="1.1" xmlns="http://www.w3.org/2000/svg" xmlns:xlink="http://www.w3.org/1999/xlink">
    <!-- Generator: sketchtool 39.1 (31720) - http://www.bohemiancoding.com/sketch -->
    <title>91F7DAFC-4F97-4DF1-BE7F-CA08EB326802</title>
    <desc>Created with sketchtool.</desc>
    <defs></defs>
    <g id="Blocks" stroke="none" stroke-width="1" fill="none" fill-rule="evenodd">
        <g id="Clients-2" transform="translate(-670.000000, -741.000000)">
            <g id="Group-6" transform="translate(610.000000, 637.000000)">
                <rect id="Rectangle-6" fill="#D8D8D8" opacity="0" x="0" y="0" width="240" height="240"></rect>
                <path d="M162,134.130357 C163.658058,134.290056 165.313593,134.46233 166.966603,134.640892 L170.615846,125.661263 L174.084645,135.46831 C175.865101,135.690883 177.643034,135.923516 179.417182,136.167466 L173.336373,118.968982 L179.419706,104 L174.267612,104 L174.214614,104.072934 L170.928782,112.159755 L168.044215,104 L162.957737,104 L168.209516,118.850779 L162,134.130357 L162,134.130357 Z" id="path3015" fill="#FFFFFF"></path>
                <path d="M158.085216,133.778264 L158.085216,104 L153,104 L153,133.360782 C154.697175,133.490302 156.393089,133.631139 158.085216,133.778264" id="path3019" fill="#FFFFFF"></path>
                <path d="M119.993068,132.113317 C121.365951,132.113317 122.736309,132.123376 124.105406,132.134744 L124.105406,121.194712 L130.213975,121.194712 L130.213975,116.535768 L124.105406,116.535768 L124.105406,108.663975 L131.140166,108.663975 L131.140166,104 L119,104 L119,132.117139 C119.330602,132.117139 119.661204,132.113115 119.993068,132.113115" id="path3023" fill="#FFFFFF"></path>
                <path d="M103.753352,132.397556 C105.446742,132.337197 107.142656,132.286898 108.841093,132.245402 L108.841093,108.663975 L113.593183,108.663975 L113.593183,104 L99,104 L99,108.663975 L103.753352,108.663975 L103.753352,132.397556 L103.753352,132.397556 Z" id="path3035" fill="#FFFFFF"></path>
                <path d="M64.8782747,135.537471 L64.8782747,117.795757 L70.8985148,134.82071 C72.7496346,134.613227 74.6045398,134.418318 76.4632306,134.234727 L76.4632306,104 L71.584956,104 L71.584956,122.376739 L65.0877402,104 L64.8782747,104 L60,104 L60,136.175011 L60.0302842,136.175011 C61.6429161,135.952438 63.2593335,135.741182 64.8782747,135.537471" id="path3039" fill="#FFFFFF"></path>
                <path d="M94.1414275,108.663975 L94.1414275,104 L82,104 L82,129.061475 L82,133.726707 L82,133.730731 C86.0290561,133.383668 90.0719925,133.093191 94.1313328,132.856786 L94.1313328,132.852762 L94.1313328,131.508522 L94.1313328,128.188788 C91.7843098,128.324595 89.4423342,128.481779 87.1054059,128.655311 L87.1054059,121.19597 L93.2139749,121.19597 L93.2139749,116.53451 L87.1054059,116.53451 L87.1054059,108.663975 L94.1414275,108.663975 L94.1414275,108.663975 Z" id="path3051" fill="#FFFFFF"></path>
                <path d="M141.106668,127.966215 L141.106668,104 L136,104 L136,127.746157 L136,132.410131 L136,132.415161 C140.061864,132.563543 144.108586,132.771026 148.141428,133.031324 L148.141428,133.025288 L148.141428,131.518833 L148.141428,128.361313 C145.800714,128.210416 143.456214,128.079639 141.106668,127.966466" id="path3055" fill="#FFFFFF"></path>
            </g>
        </g>
    </g>
</svg>