<?xml version="1.0" encoding="UTF-8" standalone="no"?>
<svg width="121px" height="36px" viewBox="0 0 121 36" version="1.1" xmlns="http://www.w3.org/2000/svg" xmlns:xlink="http://www.w3.org/1999/xlink">
    <!-- Generator: sketchtool 39.1 (31720) - http://www.bohemiancoding.com/sketch -->
    <title>0CDD8FA3-2B1E-4374-838E-36D879978CC5</title>
    <desc>Created with sketchtool.</desc>
    <defs></defs>
    <g id="Blocks" stroke="none" stroke-width="1" fill="none" fill-rule="evenodd">
        <g id="Clients-1" transform="translate(-410.000000, -741.000000)">
            <g id="Group-13" transform="translate(350.000000, 639.000000)">
                <rect id="Rectangle-6" fill="#D8D8D8" opacity="0" x="0" y="0" width="240" height="240"></rect>
                <g id="Group-10" transform="translate(60.000000, 102.000000)" fill="#AAB2B8">
                    <path d="M43.2497019,14.0396 C43.2497019,10.48328 45.8695095,8 50.6304594,8 C53.5354293,8 55.9125095,8.918 57.2003472,9.81728 C57.3846357,9.94568 57.7134454,10.2572 57.5163051,10.83656 C57.2636357,11.46056 56.800247,12.39896 56.4678001,13.00856 C56.2742971,13.36376 55.7801127,13.31696 55.5269584,13.19 C54.6096377,12.72992 53.1050185,11.9516 51.7228542,11.80808 C51.3836177,11.7728 51.0271648,11.7536 50.668772,11.76296 C49.4514975,11.78984 48.4345155,12.20816 48.0763652,13.12736 C48.0043472,13.31024 47.9655496,13.49288 47.9606999,13.67312 C47.9272369,14.8844 49.6304514,15.3224 51.693756,15.67328 C55.5296257,16.32368 58.4316858,17.4368 58.4316858,21.34448 C58.4316858,24.66296 55.7670185,27.662 50.5460746,27.57008 C47.104243,27.5012 44.6624193,26.35016 43.3539704,25.2332 C43.3093532,25.19528 42.811289,24.6932 43.078265,24.08936 C43.3837961,23.312 43.8995616,22.42112 44.304269,21.94808 C44.5292951,21.64424 45.1231407,21.596 45.4318241,21.78536 C46.5103973,22.44872 48.2853872,23.5124 50.3314754,23.58296 C50.4929704,23.58848 50.6530105,23.58944 50.8101407,23.58536 C52.6506017,23.5412 53.7640927,22.85048 53.7408141,21.68696 C53.7209303,20.66192 52.2616558,20.06312 49.9379223,19.62968 C46.231782,18.93872 43.2501868,17.7296 43.2501868,14.0396" id="Shape"></path>
                    <path d="M76.6446195,18.8273728 C74.0311165,18.8612128 71.63488,19.5682528 71.5657718,21.5897728 C71.5650444,23.1939328 72.8797979,23.9818528 74.7251085,23.8786528 C76.4952488,23.7099328 77.8451626,22.9500928 78.4399782,21.9418528 C78.6599121,21.5681728 78.693375,20.1699328 78.6800383,19.5723328 C78.6766436,19.4451328 78.4225193,19.2044128 78.3112187,19.1580928 C77.7559281,18.9264928 77.3449161,18.8549728 76.644377,18.8268928 L76.6446195,18.8273728 Z M67.948381,10.6817728 C69.1705053,9.59937275 71.5936576,7.91457275 75.4554732,8.00337275 C80.5517798,8.10825275 83.2440904,10.4729728 83.4948199,16.1297728 C83.5981185,18.4625728 83.4269241,24.9694528 83.3861866,26.5906528 C83.3801245,26.8232128 83.3005894,26.9840128 82.9839041,26.9900128 C82.1446636,27.0233728 80.2057538,27.0101728 79.314864,26.9986528 C78.8652969,26.9770528 78.8131626,26.7562528 78.807343,26.5251328 C78.8034632,26.3739328 78.790369,25.9256128 78.7809121,25.5600928 C78.7758199,25.3661728 78.5917738,25.3716928 78.5447317,25.4213728 C77.3492808,26.6847328 75.3914572,27.2948128 73.3094812,27.2948128 C70.1450524,27.2948128 66.9903229,25.4523328 67.0000223,21.8036128 C67.0097217,18.0668128 69.6867558,16.2236128 72.6276135,15.7889728 C74.5107518,15.5115328 76.6334652,15.7582528 78.2408981,16.3904128 C78.3437117,16.4312128 78.5537037,16.3721728 78.5554011,16.2279328 C78.5619482,15.7517728 78.5386696,14.8443328 78.4462828,14.4142528 C78.210345,13.3184128 77.2867197,12.4366528 75.346355,12.1990528 C74.9467397,12.1503328 74.5444572,12.1342528 74.1416896,12.1659328 C72.5992427,12.2859328 70.7430203,13.4763328 69.974343,13.9220128 C69.7934492,14.0266528 69.5102267,13.9500928 69.4185674,13.8332128 C68.9699702,13.2596128 67.8424151,11.5820128 67.7536656,11.3139328 C67.6649161,11.0465728 67.7900383,10.8214528 67.9478961,10.6808128 L67.948381,10.6817728 L67.948381,10.6817728 Z" id="Shape"></path>
                    <path d="M85.0001864,17.6470562 C84.9698758,12.4354562 88.6386733,8.03889624 94.5960441,8.00025624 C98.3133387,7.97625624 101.013894,9.64425624 101.490134,10.4309762 C101.586886,10.6157762 101.537176,10.7700962 101.470251,10.9560962 C101.155505,11.6136962 100.360639,12.8842562 99.7941944,13.6042562 C99.5529218,13.9109762 99.2910381,13.6481762 98.9867194,13.4477762 C98.1421443,12.8909762 96.5373788,12.2100962 94.9580741,12.2100962 C92.0928717,12.2105762 89.9592465,14.1550562 89.98301,17.7324962 C90.0053186,21.1654562 92.048982,23.0520962 94.968016,23.1204962 C96.4939739,23.1584162 97.9724048,22.2903362 98.7677555,21.5792162 C99.017515,21.3634562 99.276004,21.4714562 99.5614088,21.6922562 C100.121549,22.2588962 100.924902,23.1336962 101.370347,23.7358562 C101.662056,24.0704162 101.44382,24.3977762 101.338824,24.5292962 C100.130279,26.0429762 97.7961182,27.3168962 94.7071022,27.3341762 C88.2390581,27.3790562 85.030497,22.8778562 85.0006713,17.6477762" id="Shape"></path>
                    <path d="M115.899828,27.3768591 C116.203419,27.3542991 119.443261,26.9117391 120.437692,26.6863791 C120.684542,26.6306991 120.772321,26.4252591 120.634347,26.2217391 C120.079057,25.3975791 118.619055,23.0570991 117.089944,20.9618991 C115.683532,19.0354191 114.201221,17.3410191 113.721828,16.6891791 C113.60495,16.5307791 113.611255,16.3747791 113.73856,16.2518991 C114.650546,15.3686991 118.465319,11.6666991 119.899618,10.1378991 C120.454908,9.54317913 120.121491,9.28733913 119.649858,9.14837913 C118.738842,8.87957913 117.265261,8.54453913 116.427233,8.36957913 C116.073932,8.29565913 115.648371,8.32157913 115.339445,8.63597913 C113.905389,9.95957913 109.528778,14.3071791 108.222269,15.6067791 C107.987059,15.8412591 107.850055,15.7891791 107.848842,15.4541391 C107.838173,12.9485391 107.788221,2.22101913 107.697774,0.456539131 C107.691469,0.223259131 107.408004,0.046139131 107.248207,0.037739131 C106.426668,-0.00474086904 104.351239,-0.016980869 103.533337,0.030539131 C103.304189,0.056219131 103.085225,0.287339131 103.065341,0.482699131 C102.876688,3.30413913 103.145361,24.0156591 103.257389,26.9129391 C103.265391,27.1224591 103.423006,27.2849391 103.624027,27.2966991 C104.439988,27.3434991 106.458191,27.3403791 107.400487,27.3228591 C107.864119,27.3228591 107.92086,27.0002991 107.92086,27.0002991 L107.990696,21.4426191 C107.990696,21.4426191 108.038465,21.1954191 108.115818,21.1138191 C108.448023,20.7598191 109.367041,19.7849391 109.758896,19.4081391 C109.85298,19.3176591 110.001381,19.3241391 110.097405,19.4520591 C110.562976,20.0736591 111.890582,22.0944591 113.121193,23.8992591 C114.2519,25.5571791 115.307437,27.0286191 115.381153,27.1325391 C115.551377,27.3725391 115.750215,27.3821391 115.900071,27.3775791 L115.900071,27.3768591 L115.899828,27.3768591 Z" id="Shape"></path>
                    <path d="M61.6559092,27.3511805 C61.940829,27.3605405 64.1025825,27.3581405 65.0603982,27.3569405 C65.3829032,27.3631805 65.5504603,27.1215005 65.5611296,26.9081405 C65.7645745,22.8459005 65.6775224,3.50526055 65.5490054,0.451260548 C65.538336,0.187260548 65.4241256,0.0881405482 65.2420194,0.0641405482 C64.4199953,-0.0448194518 62.0838951,-0.0193794518 61.3351016,0.174540548 C61.1886406,0.212220548 61.102316,0.322380548 61.0977088,0.463980548 C60.9143901,8.33598055 61.0380575,26.4847805 61.0768551,26.8284605 C61.1154102,27.1726205 61.2972739,27.3391805 61.6563941,27.3511805 L61.6559092,27.3511805 L61.6559092,27.3511805 Z" id="Shape"></path>
                    <path d="M3.03905663,19.3967429 C1.7068442,19.4068229 0.578319154,18.6210629 0.162214945,17.3946629 C0.146210937,17.3471429 0.132389294,17.3010629 0.119052621,17.2547429 C-0.334394273,15.6841829 0.544856228,14.0411429 2.12076605,13.5150629 L27.3973993,5.1335429 C27.7046278,5.0464229 28.0140386,5.0020229 28.3205396,5.0001029 C29.6881548,4.9895429 30.847718,5.7925829 31.2740065,7.0449029 L31.3118342,7.1658629 C31.7846799,8.8017029 30.6098402,10.2618629 29.2022149,10.7298629 C29.201245,10.7305829 28.9451809,10.8162629 4.06573799,19.2237029 C3.72941134,19.3367429 3.38435523,19.3938629 3.03905663,19.3967429 L3.03905663,19.3967429 L3.03905663,19.3967429 Z" id="Shape"></path>
                    <path d="M8.05185984,31.5140926 C6.70922057,31.5236926 5.57681576,30.7489726 5.16556125,29.5400926 C5.15004221,29.4940126 5.13525063,29.4476926 5.12191395,29.4011326 C4.66216245,27.8118526 5.54044301,26.1515326 7.1216875,25.6247326 L32.3992907,17.1664126 C32.725918,17.0584126 33.0632146,17.0032126 33.402451,17.0000926 C34.7487276,16.9900126 35.9315693,17.8040926 36.3488859,19.0266526 L36.3876835,19.1538526 C36.6318659,19.9988926 36.4875873,20.9485726 36.0021324,21.6980926 C35.6403448,22.2553726 34.4992105,22.7459326 34.4992105,22.7459326 L9.12558329,31.3328926 C8.7720402,31.4497726 8.41146505,31.5114526 8.05185984,31.5145726 L8.05185984,31.5140926 L8.05185984,31.5140926 Z" id="Shape"></path>
                    <path d="M28.5705919,30.9538466 C27.2223755,30.9641666 26.028622,30.1222466 25.5989386,28.8603266 L17.1628865,4.05872655 L17.1206941,3.91952655 C16.6636099,2.33792655 17.5426179,0.688166554 19.1180428,0.162566554 C19.4332733,0.0576865543 19.7591731,0.00296655427 20.0872552,8.65542724e-05 C20.57465,-0.00351344573 21.0462833,0.105206554 21.4905157,0.322406554 C22.2332472,0.688406554 22.7887803,1.31840655 23.0543013,2.09648655 L31.489626,26.8959266 L31.5141169,26.9756066 C31.9879326,28.6176866 31.1108644,30.2684066 29.5354396,30.7940066 C29.2233614,30.8969666 28.8984316,30.9509666 28.5705919,30.9538466 L28.5705919,30.9538466 L28.5705919,30.9538466 Z" id="Shape"></path>
                    <path d="M16.570279,35.9514582 C15.2220626,35.9617782 14.0273391,35.1198582 13.5974133,33.8562582 L5.16354354,9.05561824 C5.14899444,9.01001824 5.13444534,8.96441824 5.12038121,8.91761824 C4.66450947,7.33649824 5.54085015,5.68649824 7.11579003,5.16041824 C7.42980807,5.05721824 7.75449544,5.00273824 8.08209264,5.00009824 C9.43055155,4.98953824 10.6245475,5.83121824 11.0542309,7.09361824 L19.4883431,31.8952182 C19.5041047,31.9384182 19.5184113,31.9861782 19.531263,32.0317782 C19.9881047,33.6140982 19.111279,35.2650582 17.5339143,35.7911382 C17.2206237,35.8945782 16.8964213,35.9485782 16.5693091,35.9512182 L16.570279,35.9512182 L16.570279,35.9514582 Z" id="Shape"></path>
                    <polygon id="Shape" points="24.9296954 25.64256 30.8118958 23.652 28.88899 18 23 19.96968"></polygon>
                    <polygon id="Shape" points="11.9432745 29.68552 17.82499 27.6952 15.8875351 22 10 23.9704"></polygon>
                    <polygon id="Shape" points="19.9112665 13.57392 25.7939519 11.586 23.8935972 6 18 7.95432"></polygon>
                    <polygon id="Shape" points="7.93454509 17.6452 13.8172305 15.65728 11.8935972 10 6 11.95408 7.93454509 17.6452"></polygon>
                </g>
            </g>
        </g>
    </g>
</svg>